<?xml version="1.0" encoding="utf-8"?>
<!-- Generator: Adobe Illustrator 26.0.3, SVG Export Plug-In . SVG Version: 6.00 Build 0)  -->
<svg version="1.1" id="Capa_1" xmlns="http://www.w3.org/2000/svg" xmlns:xlink="http://www.w3.org/1999/xlink" x="0px" y="0px"
	 viewBox="0 0 438 328" style="enable-background:new 0 0 438 328;" xml:space="preserve">
<style type="text/css">
	.st0{fill:#FFFFFF;}
	.st1{fill-rule:evenodd;clip-rule:evenodd;fill:#FFFFFF;}
	.st2{fill-rule:evenodd;clip-rule:evenodd;fill:#00355B;}
	.st3{fill:#0082CA;}
</style>
<g>
	<g>
		<path class="st0" d="M1.11,302.26l1.23-2.18c0.21-0.34,0.71-0.29,0.89-0.16c0.1,0.05,1.99,1.44,3.72,1.44
			c1.05,0,1.81-0.65,1.81-1.57c0-1.1-0.92-1.94-2.7-2.65c-2.25-0.89-5.09-2.65-5.09-5.79c0-2.6,2.02-5.22,6.06-5.22
			c2.73,0,4.82,1.39,5.61,1.97c0.31,0.18,0.26,0.65,0.16,0.84l-1.34,2.02c-0.18,0.29-0.66,0.52-0.89,0.34
			c-0.24-0.13-2.15-1.57-3.75-1.57c-0.94,0-1.65,0.63-1.65,1.34c0,0.97,0.79,1.7,2.86,2.54c2.04,0.81,5.3,2.41,5.3,5.98
			c0,2.7-2.33,5.43-6.19,5.43c-3.41,0-5.3-1.41-5.9-2.02C0.98,302.74,0.9,302.63,1.11,302.26z"/>
		<path class="st0" d="M18.89,290.26h-3.75c-0.29,0-0.5-0.24-0.5-0.5v-2.86c0-0.26,0.21-0.5,0.5-0.5h11.64c0.29,0,0.5,0.24,0.5,0.5
			v2.86c0,0.26-0.21,0.5-0.5,0.5h-3.75v14c0,0.26-0.24,0.5-0.5,0.5h-3.15c-0.26,0-0.5-0.24-0.5-0.5V290.26z"/>
		<path class="st0" d="M27.67,299.62v-2.39c0-0.29,0.21-0.5,0.5-0.5h6c0.29,0,0.5,0.21,0.5,0.5v2.39c0,0.26-0.21,0.47-0.5,0.47h-6
			C27.88,300.09,27.67,299.88,27.67,299.62z"/>
		<path class="st0" d="M46.1,286.14c2.62,0,4.56,0.81,6.34,2.44c0.24,0.21,0.24,0.52,0.03,0.73l-2.04,2.12
			c-0.18,0.18-0.47,0.18-0.66,0c-0.97-0.87-2.25-1.34-3.54-1.34c-2.96,0-5.14,2.46-5.14,5.4c0,2.91,2.2,5.32,5.16,5.32
			c1.23,0,2.57-0.45,3.51-1.26c0.18-0.16,0.52-0.16,0.68,0.03l2.04,2.18c0.18,0.18,0.16,0.52-0.03,0.71
			c-1.78,1.73-4.04,2.54-6.37,2.54c-5.24,0-9.46-4.17-9.46-9.41C36.64,290.36,40.86,286.14,46.1,286.14z"/>
		<path class="st0" d="M55.62,286.9c0-0.26,0.21-0.5,0.5-0.5h10.85c0.29,0,0.5,0.24,0.5,0.5v2.86c0,0.26-0.21,0.5-0.5,0.5h-7.26
			v3.25h5.98c0.26,0,0.5,0.24,0.5,0.5v2.86c0,0.29-0.24,0.5-0.5,0.5h-5.98v3.54h7.26c0.29,0,0.5,0.24,0.5,0.5v2.86
			c0,0.26-0.21,0.5-0.5,0.5H56.12c-0.29,0-0.5-0.24-0.5-0.5V286.9z"/>
		<path class="st0" d="M70.99,286.9c0-0.26,0.21-0.5,0.5-0.5h7.84c3.15,0,5.71,2.54,5.71,5.66c0,2.41-1.6,4.35-3.88,5.27l3.59,6.66
			c0.18,0.34,0,0.76-0.45,0.76h-3.49c-0.21,0-0.37-0.13-0.42-0.24l-3.49-6.95h-1.81v6.69c0,0.26-0.24,0.5-0.5,0.5h-3.12
			c-0.29,0-0.5-0.24-0.5-0.5V286.9z M78.99,294.24c1.07,0,1.99-1,1.99-2.1c0-1.1-0.92-1.99-1.99-1.99h-3.88v4.09H78.99z"/>
		<path class="st0" d="M101.87,286.35c0.39-0.13,0.68,0.05,0.81,0.42l0.76,2.02c0.1,0.32,0.03,0.6-0.5,0.76
			c-1.23,0.39-4.72,1.6-5.27,4.3c0.68-0.29,1.78-0.52,2.49-0.52c2.46,0,5.22,1.81,5.22,5.69c0,3.3-2.73,6-6,6
			c-4.06,0-6.32-3.04-6.32-7.13C93.07,290.18,99.62,287.06,101.87,286.35z M99.33,301.4c1.39,0,2.52-1.15,2.52-2.52
			c0-1.39-1.13-2.54-2.52-2.54c-1.39,0-2.52,1.15-2.52,2.54C96.82,300.25,97.94,301.4,99.33,301.4z"/>
		<path class="st0" d="M115.98,286.35c0.39-0.13,0.68,0.05,0.81,0.42l0.76,2.02c0.1,0.32,0.03,0.6-0.5,0.76
			c-1.23,0.39-4.72,1.6-5.27,4.3c0.68-0.29,1.78-0.52,2.49-0.52c2.46,0,5.22,1.81,5.22,5.69c0,3.3-2.73,6-6,6
			c-4.06,0-6.32-3.04-6.32-7.13C107.17,290.18,113.73,287.06,115.98,286.35z M113.44,301.4c1.39,0,2.52-1.15,2.52-2.52
			c0-1.39-1.13-2.54-2.52-2.54s-2.52,1.15-2.52,2.54C110.92,300.25,112.05,301.4,113.44,301.4z"/>
		<path class="st0" d="M121.78,295.84c0-5.74,2.44-9.17,6.71-9.17c4.27,0,6.71,3.43,6.71,9.17s-2.44,9.17-6.71,9.17
			C124.21,305.02,121.78,301.58,121.78,295.84z M130.98,295.84c0-3.43-0.89-5.37-2.49-5.37c-1.6,0-2.49,1.94-2.49,5.37
			c0,3.46,0.89,5.37,2.49,5.37C130.09,301.22,130.98,299.3,130.98,295.84z"/>
		<path class="st0" d="M138.14,295.84c0-5.74,2.44-9.17,6.71-9.17c4.27,0,6.71,3.43,6.71,9.17s-2.44,9.17-6.71,9.17
			C140.58,305.02,138.14,301.58,138.14,295.84z M147.34,295.84c0-3.43-0.89-5.37-2.49-5.37c-1.6,0-2.49,1.94-2.49,5.37
			c0,3.46,0.89,5.37,2.49,5.37C146.45,301.22,147.34,299.3,147.34,295.84z"/>
		<path class="st0" d="M156.67,292.46h-2.52c-0.26,0-0.47-0.24-0.47-0.5v-1.65c0-0.11,0.08-0.32,0.16-0.39l3.83-2.99h2.41
			c0.26,0,0.47,0.24,0.47,0.5v16.83c0,0.26-0.21,0.5-0.47,0.5h-2.91c-0.29,0-0.5-0.24-0.5-0.5V292.46z"/>
		<path class="st0" d="M163.81,303.97l6.55-13.68h-6.08c-0.26,0-0.5-0.24-0.5-0.5v-2.36c0-0.26,0.24-0.5,0.5-0.5h11.06
			c0.26,0,0.5,0.24,0.5,0.5v0.18L168,303.99c-0.31,0.66-0.68,0.76-1.07,0.76h-2.6c-0.29,0-0.52-0.21-0.52-0.5V303.97z"/>
	</g>
	<g>
		<path class="st0" d="M224.32,286.14c2.62,0,4.56,0.81,6.34,2.44c0.24,0.21,0.24,0.52,0.03,0.73l-2.05,2.12
			c-0.18,0.18-0.47,0.18-0.66,0c-0.97-0.87-2.25-1.34-3.54-1.34c-2.96,0-5.14,2.46-5.14,5.4c0,2.91,2.2,5.32,5.16,5.32
			c1.23,0,2.57-0.45,3.51-1.26c0.18-0.16,0.52-0.16,0.68,0.03l2.04,2.18c0.18,0.18,0.16,0.52-0.03,0.71
			c-1.78,1.73-4.04,2.54-6.37,2.54c-5.24,0-9.46-4.17-9.46-9.41C214.86,290.36,219.08,286.14,224.32,286.14z"/>
		<path class="st0" d="M241.84,286.14c5.24,0,9.44,4.22,9.44,9.46c0,5.24-4.19,9.41-9.44,9.41c-5.24,0-9.41-4.17-9.41-9.41
			C232.42,290.36,236.59,286.14,241.84,286.14z M241.84,300.82c2.88,0,5.24-2.36,5.24-5.22c0-2.88-2.36-5.27-5.24-5.27
			c-2.86,0-5.22,2.39-5.22,5.27C236.62,298.46,238.98,300.82,241.84,300.82z"/>
		<path class="st0" d="M253.24,299.62v-2.39c0-0.29,0.21-0.5,0.5-0.5h6c0.29,0,0.5,0.21,0.5,0.5v2.39c0,0.26-0.21,0.47-0.5,0.47h-6
			C253.45,300.09,253.24,299.88,253.24,299.62z"/>
		<path class="st0" d="M261.82,302.27l1.23-2.18c0.21-0.34,0.71-0.29,0.89-0.16c0.1,0.05,1.99,1.44,3.72,1.44
			c1.05,0,1.81-0.65,1.81-1.57c0-1.1-0.92-1.94-2.7-2.65c-2.25-0.89-5.09-2.65-5.09-5.79c0-2.6,2.02-5.22,6.06-5.22
			c2.73,0,4.82,1.39,5.61,1.97c0.32,0.18,0.26,0.65,0.16,0.84l-1.34,2.02c-0.18,0.29-0.65,0.52-0.89,0.34
			c-0.24-0.13-2.15-1.57-3.75-1.57c-0.94,0-1.65,0.63-1.65,1.34c0,0.97,0.79,1.7,2.86,2.54c2.04,0.81,5.29,2.41,5.29,5.98
			c0,2.7-2.33,5.43-6.19,5.43c-3.41,0-5.29-1.41-5.9-2.02C261.69,302.74,261.61,302.63,261.82,302.27z"/>
		<path class="st0" d="M279.59,290.26h-3.75c-0.29,0-0.5-0.24-0.5-0.5v-2.86c0-0.26,0.21-0.5,0.5-0.5h11.64c0.29,0,0.5,0.24,0.5,0.5
			v2.86c0,0.26-0.21,0.5-0.5,0.5h-3.75v14c0,0.26-0.24,0.5-0.5,0.5h-3.15c-0.26,0-0.5-0.24-0.5-0.5V290.26z"/>
		<path class="st0" d="M288.38,299.62v-2.39c0-0.29,0.21-0.5,0.5-0.5h6c0.29,0,0.5,0.21,0.5,0.5v2.39c0,0.26-0.21,0.47-0.5,0.47h-6
			C288.59,300.09,288.38,299.88,288.38,299.62z"/>
		<path class="st0" d="M306.81,286.14c2.62,0,4.56,0.81,6.34,2.44c0.24,0.21,0.24,0.52,0.03,0.73l-2.05,2.12
			c-0.18,0.18-0.47,0.18-0.66,0c-0.97-0.87-2.25-1.34-3.54-1.34c-2.96,0-5.14,2.46-5.14,5.4c0,2.91,2.2,5.32,5.16,5.32
			c1.23,0,2.57-0.45,3.51-1.26c0.18-0.16,0.52-0.16,0.68,0.03l2.04,2.18c0.18,0.18,0.16,0.52-0.03,0.71
			c-1.78,1.73-4.04,2.54-6.37,2.54c-5.24,0-9.46-4.17-9.46-9.41C297.34,290.36,301.57,286.14,306.81,286.14z"/>
		<path class="st0" d="M316.33,286.9c0-0.26,0.21-0.5,0.5-0.5h10.85c0.29,0,0.5,0.24,0.5,0.5v2.86c0,0.26-0.21,0.5-0.5,0.5h-7.26
			v3.25h5.98c0.26,0,0.5,0.24,0.5,0.5v2.86c0,0.29-0.24,0.5-0.5,0.5h-5.98v3.54h7.26c0.29,0,0.5,0.24,0.5,0.5v2.86
			c0,0.26-0.21,0.5-0.5,0.5h-10.85c-0.29,0-0.5-0.24-0.5-0.5V286.9z"/>
		<path class="st0" d="M331.69,286.9c0-0.26,0.21-0.5,0.5-0.5h7.84c3.15,0,5.71,2.54,5.71,5.66c0,2.41-1.6,4.35-3.88,5.27l3.59,6.66
			c0.18,0.34,0,0.76-0.45,0.76h-3.49c-0.21,0-0.37-0.13-0.42-0.24l-3.49-6.95h-1.81v6.69c0,0.26-0.24,0.5-0.5,0.5h-3.12
			c-0.29,0-0.5-0.24-0.5-0.5V286.9z M339.69,294.24c1.07,0,1.99-1,1.99-2.1s-0.92-1.99-1.99-1.99h-3.88v4.09H339.69z"/>
		<path class="st0" d="M356.78,286.35c0.39-0.13,0.68,0.05,0.81,0.42l0.76,2.02c0.1,0.32,0.03,0.6-0.5,0.76
			c-1.23,0.39-4.72,1.6-5.27,4.3c0.68-0.29,1.78-0.52,2.49-0.52c2.46,0,5.22,1.81,5.22,5.69c0,3.3-2.73,6-6,6
			c-4.06,0-6.32-3.04-6.32-7.13C347.98,290.18,354.53,287.06,356.78,286.35z M354.24,301.4c1.39,0,2.52-1.15,2.52-2.52
			c0-1.39-1.13-2.54-2.52-2.54s-2.52,1.15-2.52,2.54C351.72,300.25,352.85,301.4,354.24,301.4z"/>
		<path class="st0" d="M370.89,286.35c0.39-0.13,0.68,0.05,0.81,0.42l0.76,2.02c0.1,0.32,0.03,0.6-0.5,0.76
			c-1.23,0.39-4.72,1.6-5.27,4.3c0.68-0.29,1.78-0.52,2.49-0.52c2.46,0,5.22,1.81,5.22,5.69c0,3.3-2.73,6-6,6
			c-4.06,0-6.32-3.04-6.32-7.13C362.08,290.18,368.63,287.06,370.89,286.35z M368.35,301.4c1.39,0,2.52-1.15,2.52-2.52
			c0-1.39-1.13-2.54-2.52-2.54c-1.39,0-2.52,1.15-2.52,2.54C365.83,300.25,366.96,301.4,368.35,301.4z"/>
		<path class="st0" d="M376.69,295.84c0-5.74,2.44-9.17,6.71-9.17c4.27,0,6.71,3.43,6.71,9.17c0,5.74-2.44,9.17-6.71,9.17
			C379.12,305.02,376.69,301.58,376.69,295.84z M385.89,295.84c0-3.43-0.89-5.37-2.49-5.37c-1.6,0-2.49,1.94-2.49,5.37
			c0,3.46,0.89,5.37,2.49,5.37C385,301.22,385.89,299.3,385.89,295.84z"/>
		<path class="st0" d="M393.05,295.84c0-5.74,2.44-9.17,6.71-9.17c4.27,0,6.71,3.43,6.71,9.17c0,5.74-2.44,9.17-6.71,9.17
			C395.48,305.02,393.05,301.58,393.05,295.84z M402.25,295.84c0-3.43-0.89-5.37-2.49-5.37c-1.6,0-2.49,1.94-2.49,5.37
			c0,3.46,0.89,5.37,2.49,5.37C401.36,301.22,402.25,299.3,402.25,295.84z"/>
		<path class="st0" d="M411.58,292.46h-2.52c-0.26,0-0.47-0.24-0.47-0.5v-1.65c0-0.11,0.08-0.32,0.16-0.39l3.83-2.99h2.41
			c0.26,0,0.47,0.24,0.47,0.5v16.83c0,0.26-0.21,0.5-0.47,0.5h-2.91c-0.29,0-0.5-0.24-0.5-0.5V292.46z"/>
		<path class="st0" d="M418.72,303.97l6.55-13.68h-6.08c-0.26,0-0.5-0.24-0.5-0.5v-2.36c0-0.26,0.24-0.5,0.5-0.5h11.06
			c0.26,0,0.5,0.24,0.5,0.5v0.18L422.91,304c-0.32,0.66-0.68,0.76-1.07,0.76h-2.6c-0.29,0-0.52-0.21-0.52-0.5V303.97z"/>
	</g>
	<g>
		<rect x="251.06" y="120.91" class="st1" width="145" height="5.88"/>
		<rect x="251.06" y="174.16" class="st1" width="145" height="4.33"/>
		<polygon class="st1" points="371.79,147.22 368.46,147.22 368.46,145.68 378.16,135.46 379.07,135.46 379.07,142.27 
			387.27,142.27 387.27,147.22 379.07,147.22 379.07,155.89 379.07,156.51 379.07,157.13 379.37,157.44 379.37,158.06 
			379.37,158.37 379.69,158.68 379.69,158.99 379.99,159.3 380.29,159.61 380.59,159.92 380.89,159.92 381.5,160.23 381.8,160.23 
			382.41,160.23 382.72,160.23 383.02,160.23 383.33,160.23 383.63,160.23 383.93,160.23 384.24,159.92 384.54,159.92 
			384.84,159.92 385.14,159.92 385.45,159.92 385.75,159.61 386.05,159.61 386.36,159.61 386.66,159.3 386.96,159.3 387.27,158.99 
			387.27,164.56 386.96,164.56 386.36,164.87 386.05,164.87 385.45,165.18 385.14,165.18 384.54,165.18 384.24,165.49 
			383.63,165.49 383.33,165.49 382.72,165.49 382.41,165.8 381.8,165.8 381.5,165.8 380.89,165.8 380.59,165.8 380.29,165.8 
			379.07,165.8 378.16,165.49 377.25,165.49 376.34,165.18 375.43,164.87 374.83,164.56 374.22,163.95 373.61,163.63 373.31,163.01 
			372.7,162.08 372.4,161.47 372.4,160.54 372.1,159.3 371.79,158.37 371.79,157.13 371.79,155.89 		"/>
		<path class="st1" d="M349.95,151.56h9.1v-0.63v-0.62l-0.3-0.3v-0.63l-0.3-0.31l-0.3-0.31l-0.31-0.62l-0.3-0.31l-0.3-0.31h-0.3
			l-0.31-0.31l-0.3-0.3h-0.3h-0.6l-0.3-0.31h-0.31h-0.6l-0.61,0.31h-0.31h-0.3l-0.6,0.3l-0.31,0.31h-0.3l-0.3,0.31l-0.31,0.31
			l-0.3,0.62l-0.3,0.31l-0.3,0.31v0.63l-0.3,0.3v0.62V151.56z M366.03,162.7l-0.6,0.62l-0.6,0.31l-0.61,0.31l-0.6,0.3l-0.61,0.31
			h-0.61l-0.91,0.31l-0.6,0.31h-0.6l-0.6,0.31h-0.91h-0.61l-0.61,0.3h-0.91h-0.6h-0.91h-1.52l-1.21-0.3l-1.52-0.31l-1.21-0.31
			l-1.21-0.31l-0.92-0.62l-0.9-0.62l-1.22-0.93l-0.6-0.62l-0.91-0.93l-0.61-1.24l-0.3-0.93l-0.31-1.23l-0.3-1.23l-0.3-1.24v-1.55
			v-1.23l0.3-1.24l0.3-1.24l0.31-0.93l0.3-1.24l0.61-0.93l0.91-0.93l0.6-0.62l0.91-0.93l0.91-0.62l1.22-0.62l0.91-0.31l1.21-0.31
			l1.21-0.3l1.51-0.31h1.22h1.51l1.22,0.31l1.21,0.3l1.22,0.31l0.9,0.62l0.91,0.61l1.22,0.63l0.6,0.92l0.91,0.93l0.61,0.93l0.6,0.93
			l0.31,1.24l0.6,1.24v1.24l0.3,1.55v1.55h-16.69v0.31v0.62v0.62v0.62l0.3,0.62l0.3,0.31l0.3,0.62l0.3,0.31l0.61,0.62l0.61,0.31
			l0.3,0.31l0.6,0.3l0.61,0.31h0.91l0.61,0.3h0.91h0.61h0.6h0.61h0.61l0.6-0.3h0.61l0.6-0.31h0.31l0.6-0.3h0.61l0.61-0.31l0.6-0.31
			l0.61-0.31l0.6-0.31l0.3-0.31l0.6-0.3l0.6-0.31V162.7z"/>
		<polygon class="st1" points="315.37,143.81 315.37,165.18 308.09,165.18 308.09,131.12 314.46,131.12 329.93,151.56 
			329.93,131.12 337.21,131.12 337.21,165.18 331.44,165.18 		"/>
		<rect x="257.73" y="131.12" class="st1" width="9.1" height="34.06"/>
		<polygon class="st1" points="273.2,144.75 274.11,142.27 271.99,140.72 274.42,140.72 275.02,138.87 275.93,140.72 278.05,140.72 
			276.24,142.27 276.84,144.75 275.02,143.2 		"/>
		<polygon class="st1" points="271.08,152.8 271.99,150.63 269.86,149.08 272.29,149.08 272.9,146.92 273.81,149.08 275.94,149.08 
			274.11,150.63 275.02,152.8 272.9,151.56 		"/>
		<polygon class="st1" points="272.9,160.23 273.51,158.06 271.69,156.51 274.11,156.51 274.72,154.35 275.33,156.51 277.75,156.51 
			275.94,158.06 276.54,160.23 274.72,158.68 		"/>
		<polygon class="st1" points="278.66,166.11 279.27,163.63 277.45,162.08 279.57,162.08 280.49,159.92 281.09,162.08 
			283.51,162.08 281.7,163.63 282.31,165.8 280.49,164.56 		"/>
		<polygon class="st1" points="285.95,168.59 286.86,166.11 285.04,164.56 287.16,164.56 287.77,162.4 288.68,164.56 290.8,164.56 
			288.98,166.11 289.59,168.59 287.77,167.04 		"/>
		<polygon class="st1" points="294.13,165.8 294.74,163.63 292.92,162.08 295.04,162.08 295.96,159.92 296.56,162.08 298.99,162.08 
			297.17,163.63 297.77,165.8 295.96,164.25 		"/>
		<polygon class="st1" points="299.29,160.23 299.91,157.75 298.08,156.21 300.5,156.21 301.12,154.03 301.72,156.21 304.14,156.21 
			302.32,157.75 302.94,160.23 301.12,158.68 		"/>
		<polygon class="st1" points="301.12,152.8 301.72,150.63 299.91,149.08 302.32,149.08 302.94,146.92 303.54,149.08 305.97,149.08 
			304.14,150.63 304.76,152.8 302.94,151.56 		"/>
		<polygon class="st1" points="298.68,144.44 299.29,142.27 297.47,140.72 299.59,140.72 300.5,138.56 301.11,140.72 303.54,140.72 
			301.41,142.27 302.32,144.44 300.5,143.2 		"/>
		<polygon class="st1" points="293.22,138.87 293.83,136.7 292.01,135.15 294.44,135.15 295.05,132.98 295.95,135.15 298.08,135.15 
			296.26,136.7 296.87,138.87 295.05,137.63 		"/>
		<polygon class="st1" points="285.95,137.32 286.55,134.84 284.73,133.29 286.86,133.29 287.77,131.43 288.37,133.29 290.8,133.29 
			288.98,134.84 289.59,137.01 287.77,135.76 		"/>
		<polygon class="st1" points="278.36,138.87 278.96,136.7 277.14,135.15 279.57,135.15 280.18,132.98 280.78,135.15 283.22,135.15 
			281.39,136.7 282,138.87 280.18,137.63 		"/>
		<polygon class="st1" points="288.68,158.68 289.59,156.21 287.77,154.66 289.89,154.66 290.8,152.49 291.4,154.66 293.83,154.66 
			292.01,156.21 292.62,158.68 290.8,157.13 		"/>
		<polygon class="st1" points="298.38,172.61 299.29,170.13 297.17,168.59 299.59,168.59 300.2,166.42 301.11,168.59 303.23,168.59 
			301.42,170.13 302.32,172.3 300.2,171.06 		"/>
		<polygon class="st1" points="322.95,33.91 328.72,33.91 334.17,34.23 339.64,35.15 345.1,36.08 350.56,37.32 355.71,38.56 
			360.87,40.41 366.03,42.27 370.89,44.44 375.74,46.92 380.6,49.7 385.14,52.49 389.39,55.58 393.64,58.99 397.88,62.4 
			401.83,66.11 405.46,69.83 409.11,73.85 412.45,77.87 415.78,82.21 418.81,86.85 421.54,91.5 424.27,96.14 426.41,101.1 
			428.82,106.05 430.64,111.31 432.46,116.57 433.99,121.84 435.2,127.41 436.11,132.98 436.71,138.55 437.02,144.13 403.04,144.13 
			402.44,140.41 402.13,136.39 401.23,132.67 400.31,128.96 399.4,125.24 397.88,121.53 396.67,118.12 395.15,114.71 393.33,111.31 
			391.51,107.91 389.39,104.81 387.26,101.71 385.14,98.93 382.72,95.83 380.29,93.35 377.56,90.57 374.82,88.09 372.1,85.61 
			369.06,83.45 366.03,81.28 362.7,79.42 359.66,77.57 356.33,76.02 352.68,74.47 349.35,73.23 345.71,72 342.06,71.07 
			338.43,70.14 334.48,69.52 330.85,68.9 326.9,68.59 322.95,68.59 319.01,68.59 315.07,68.9 311.43,69.52 307.49,70.14 
			303.85,71.07 300.2,72 296.86,73.23 293.22,74.47 289.89,76.02 286.55,77.57 283.22,79.42 280.18,81.28 277.14,83.45 
			274.11,85.61 271.38,88.09 268.65,90.57 265.92,93.05 263.5,95.83 261.07,98.62 258.64,101.71 256.51,104.5 254.7,107.91 
			252.88,111 251.06,114.41 249.54,117.81 248.02,121.22 246.81,124.93 245.9,128.65 244.99,132.36 244.08,136.08 243.48,139.79 
			243.17,143.81 208.89,143.81 209.5,138.24 210.1,132.67 211.02,127.1 212.23,121.53 213.75,116.26 215.56,111 217.39,105.74 
			219.51,100.79 221.94,95.83 224.66,91.19 227.4,86.54 230.43,82.21 233.76,77.87 237.1,73.54 240.75,69.52 244.39,65.8 
			248.33,62.08 252.57,58.68 256.82,55.58 261.07,52.49 265.62,49.7 270.17,46.92 275.02,44.44 279.88,42.27 285.04,40.41 
			290.19,38.56 295.35,37.32 300.81,36.08 306.27,35.15 311.73,34.23 317.19,33.91 		"/>
		<polygon class="st1" points="243.17,155.89 243.48,159.92 244.08,163.94 244.69,167.66 245.6,171.37 246.51,175.08 247.72,178.8 
			249.24,182.21 250.76,185.93 252.57,189.32 254.39,192.43 256.21,195.52 258.34,198.62 260.76,201.72 263.2,204.5 265.62,207.29 
			268.35,210.07 271.08,212.55 273.81,215.03 276.84,217.19 279.88,219.36 282.91,221.22 286.25,223.08 289.59,224.63 
			292.92,226.17 296.56,227.41 300.2,228.64 303.85,229.89 307.49,230.5 311.43,231.12 315.07,231.75 319.01,232.05 322.95,232.05 
			326.9,232.05 330.85,231.75 334.48,231.12 338.43,230.5 342.06,229.89 345.71,228.64 349.35,227.41 352.68,226.17 356.33,224.63 
			359.66,223.08 362.7,221.22 366.03,219.36 369.06,217.19 372.1,215.03 374.83,212.55 377.56,210.07 380.29,207.59 382.72,204.81 
			385.14,202.02 387.57,198.92 389.69,195.83 391.51,192.74 393.33,189.32 395.15,185.93 396.67,182.52 398.19,179.11 399.4,175.4 
			400.31,171.68 401.23,167.97 402.13,164.25 402.44,160.23 403.04,156.51 437.02,156.51 436.71,162.08 436.11,167.66 435.2,173.23 
			433.99,178.8 432.47,184.07 430.64,189.32 428.82,194.59 426.7,199.55 424.27,204.5 421.54,209.14 418.81,213.79 415.78,218.43 
			412.45,222.77 409.1,226.79 405.46,230.82 401.83,234.84 397.88,238.24 393.64,241.96 389.39,245.06 385.14,248.15 380.59,250.94 
			375.74,253.72 371.18,256.2 366.03,258.37 361.18,260.23 356.02,262.08 350.56,263.63 345.4,264.56 339.94,265.8 334.17,266.42 
			328.72,266.73 322.95,267.04 317.19,266.73 311.72,266.42 305.96,265.8 300.5,264.56 295.35,263.32 289.89,262.08 284.73,260.23 
			279.88,258.37 274.72,256.2 269.86,253.72 265.32,250.94 260.76,248.15 256.51,245.06 251.97,241.65 248.02,238.24 244.08,234.53 
			240.44,230.82 236.8,226.79 233.46,222.45 230.13,218.12 227.09,213.79 224.36,209.14 221.63,204.19 219.21,199.24 217.08,194.28 
			215.26,189.02 213.44,183.76 212.23,178.49 211.02,172.92 209.8,167.34 209.19,161.77 208.89,155.89 		"/>
		<polygon class="st2" points="242.26,101.71 242.87,102.03 243.48,102.33 243.78,102.95 244.08,103.26 244.39,103.88 244.69,104.5 
			244.69,104.81 244.99,105.43 244.99,106.05 244.99,106.67 244.99,107.29 244.99,107.91 244.99,108.52 244.69,108.84 
			244.39,109.45 244.39,110.07 243.78,111 243.48,111.62 242.87,112.24 242.26,112.55 241.65,113.17 241.35,113.48 240.44,113.79 
			239.83,113.79 239.23,114.09 238.32,114.09 237.71,114.09 237.1,114.09 236.19,114.09 235.58,113.79 234.67,113.48 234.07,113.17 
			233.16,112.55 232.55,112.24 231.95,111.62 231.34,111 230.73,110.38 230.43,109.77 230.13,109.14 229.82,108.52 229.52,107.6 
			229.52,106.98 229.52,106.36 229.52,105.43 229.52,104.81 229.82,103.88 230.13,103.26 230.43,102.64 230.73,102.03 231.04,101.4 
			231.64,100.79 231.95,100.47 232.25,100.17 232.85,99.55 233.16,99.55 233.76,99.24 234.37,98.92 234.98,98.92 235.28,98.92 
			235.89,98.62 236.5,98.92 237.1,98.92 237.71,98.92 238.32,99.24 236.5,102.64 236.19,102.33 235.89,102.33 235.58,102.33 
			235.28,102.33 234.98,102.33 234.98,102.64 234.67,102.64 234.37,102.64 234.37,102.95 234.07,102.95 233.76,103.26 
			233.46,103.57 233.46,103.88 233.16,104.19 233.16,104.5 232.85,104.81 232.85,105.12 232.85,105.43 232.85,106.05 232.85,106.36 
			233.16,106.67 233.16,106.98 233.46,107.29 233.46,107.6 233.76,107.91 234.07,108.22 234.37,108.52 234.98,108.84 235.28,109.14 
			235.58,109.45 236.19,109.77 236.8,110.07 237.1,110.07 237.71,110.38 238.01,110.38 238.32,110.38 238.92,110.38 239.23,110.38 
			239.53,110.38 239.83,110.07 240.14,110.07 240.44,109.77 240.75,109.45 241.05,109.45 241.35,109.14 241.35,108.52 
			241.65,108.22 241.65,107.91 241.96,107.6 241.96,107.29 241.96,106.98 241.96,106.67 241.96,106.36 241.65,106.36 241.65,106.05 
			241.65,105.74 241.35,105.43 241.05,105.12 240.75,104.81 		"/>
		<polygon class="st2" points="255.3,92.11 244.69,81.59 252.57,73.23 254.7,75.4 249.54,80.97 251.36,82.83 256.21,77.57 
			258.34,79.73 253.48,85 255.91,87.16 261.37,81.28 263.5,83.45 		"/>
		<path class="st2" d="M273.81,64.25l2.74-1.24v-0.3h0.3l0.3-0.31l0.31-0.31l0.3-0.3v-0.31v-0.3v-0.31v-0.31l-0.3-0.32v-0.3h-0.31
			v-0.31h-0.3l-0.3-0.3h-0.31h-0.3l-0.31,0.3h-0.3h-0.3v0.31l-2.73,1.24L273.81,64.25z M274.42,73.85l-6.98-13.63l6.37-3.09
			l0.61-0.63h0.61l0.6-0.3l0.61-0.31h0.31h0.6h0.61h0.3h0.31l0.6,0.31h0.3l0.31,0.3l0.3,0.31l0.3,0.31l0.31,0.31l0.3,0.62v0.31
			l0.3,0.31v0.3v0.31v0.3v0.31v0.3v0.32v0.31v0.31v0.3l-0.3,0.31l-0.3,0.3v0.31h0.3h0.3h0.3l0.3,0.31h0.3l0.31,0.3l0.3,0.31
			l0.31,0.3l0.31,0.31v0.31l0.3,0.31v0.31h0.31v0.3h0.3v0.31l0.3,0.62v0.31h0.3l0.31,0.31v0.31h0.3h0.3v0.31l0.3,0.3l-3.64,1.86
			L282,69.2l-0.3-0.3v-0.31l-0.3-0.31v-0.31l-0.3-0.31l-0.3-0.3l-0.3-0.31v-0.31l-0.31-0.31v-0.31l-0.3-0.31h-0.3v-0.31h-0.31h-0.3
			h-0.3h-0.3h-0.31h-0.3l-0.3,0.31l-2.13,1.23l2.43,4.96L274.42,73.85z"/>
		<polygon class="st2" points="302.32,61.46 300.2,49.7 295.95,50.63 295.35,47.54 307.49,45.06 308.09,48.15 303.84,48.77 
			306.27,60.85 		"/>
		<polygon class="st2" points="324.47,59.3 324.77,44.13 328.41,44.13 328.41,59.3 		"/>
		<polygon class="st2" points="343.28,61.78 347.83,47.22 358.15,50.63 357.24,53.41 350.56,51.25 349.65,54.34 355.41,56.21 
			354.5,59.3 348.74,57.44 346.92,62.71 		"/>
		<polygon class="st2" points="366.64,71.38 374.22,58.37 377.56,60.22 369.67,73.23 		"/>
		<polygon class="st2" points="381.8,82.83 392.12,71.99 400.61,79.73 398.49,82.21 393.03,76.64 391.21,78.8 396.06,83.45 
			393.94,85.93 389.09,80.97 386.66,83.14 392.42,88.71 390.3,90.88 		"/>
		<path class="st2" d="M406.99,110.38l0.91,1.86v0.62l0.3,0.31l0.31,0.31h0.31v0.31l0.3,0.3h0.3h0.31l0.6,0.31h0.32h0.3l0.3-0.31
			h0.62h0.3l0.61-0.3l0.31-0.31l0.6-0.31h0.3l0.62-0.31l0.3-0.31l0.31-0.3l0.3-0.31v-0.31l0.3-0.31V111l0.31-0.31v-0.31v-0.31
			l-0.31-0.3v-0.63v-0.3l-0.3-0.31l-0.91-1.86L406.99,110.38z M402.44,108.22l13.34-6.5l2.73,5.89l0.3,0.62l0.31,0.62l0.3,0.93v0.62
			V111v0.62l-0.3,0.63v0.62l-0.31,0.62l-0.3,0.62l-0.6,0.62l-0.31,0.63l-0.6,0.3l-0.6,0.62l-0.61,0.31l-0.91,0.62l-0.91,0.31
			l-0.59,0.31l-0.91,0.31h-0.61h-0.91h-0.61h-0.6l-0.61-0.31h-0.6l-0.6-0.31l-0.61-0.62l-0.6-0.31l-0.31-0.62l-0.61-0.61l-0.3-0.93
			l-0.6-0.62L402.44,108.22z"/>
		<polygon class="st2" points="236.5,175.4 238.01,179.11 227.4,187.78 241.05,186.54 242.56,190.25 227.7,196.45 226.49,194.28 
			238.92,188.71 224.97,190.25 224.06,188.09 234.67,179.11 222.54,184.38 221.63,181.9 		"/>
		<path class="st2" d="M243.48,197.38l-7.28,1.54l2.73,4.34L243.48,197.38z M244.69,194.6l1.82,2.48l-10.62,13.62l-1.22-2.48
			l2.73-3.4l-3.34-5.26l-4.25,0.92l-1.51-2.48L244.69,194.6z"/>
		<polygon class="st2" points="248.63,201.72 250.45,203.88 246.51,217.81 255.61,209.45 257.12,211.31 245.29,222.45 
			243.48,220.29 247.42,206.36 238.32,214.4 236.8,212.55 		"/>
		<path class="st2" d="M260.77,219.36l-6.68,3.41l3.64,3.41L260.77,219.36z M261.67,216.26l2.13,2.16l-6.98,15.79l-2.12-1.85
			l1.81-4.02l-4.55-4.64l-3.64,2.16l-2.12-2.16L261.67,216.26z"/>
		<polygon class="st2" points="275.94,233.6 273.81,232.05 274.11,231.75 274.11,231.43 274.11,231.12 274.11,230.82 274.11,230.5 
			274.11,230.2 274.11,229.57 274.11,229.27 273.81,228.96 273.81,228.64 273.51,228.34 273.2,228.34 273.2,228.03 272.9,227.72 
			272.6,227.41 272.29,227.1 271.69,226.79 271.08,226.48 270.78,226.48 270.17,226.17 269.56,226.17 269.26,226.17 268.65,226.17 
			268.35,226.48 267.74,226.48 267.14,226.79 266.83,227.1 266.22,227.41 265.92,227.72 265.32,228.34 265.01,228.96 264.71,229.27 
			264.11,229.89 263.8,230.5 263.5,231.12 263.5,231.75 263.19,232.36 263.19,232.98 263.19,233.29 263.19,233.91 263.19,234.53 
			263.5,235.15 263.5,235.46 263.8,236.08 264.11,236.39 264.41,236.69 265.01,237.01 265.32,237.63 265.62,237.63 266.22,237.94 
			266.53,238.24 266.83,238.24 267.44,238.24 267.74,238.24 268.35,238.24 268.65,238.24 268.95,238.24 269.56,237.94 
			269.86,237.94 270.17,237.63 270.47,237.32 271.08,237.01 271.38,236.69 271.69,236.39 267.74,233.91 269.26,231.75 
			275.02,235.77 269.86,243.2 268.65,242.27 269.26,240.1 268.95,240.41 268.65,240.41 268.35,240.41 267.74,240.41 267.44,240.41 
			267.14,240.41 266.83,240.41 266.53,240.41 266.22,240.41 265.62,240.41 265.32,240.1 265.01,240.1 264.71,240.1 264.41,239.79 
			264.11,239.49 263.8,239.49 262.89,238.86 262.59,238.24 261.98,237.63 261.67,237.01 261.07,236.39 261.07,235.77 260.76,235.15 
			260.46,234.22 260.46,233.6 260.46,232.67 260.46,232.05 260.76,231.12 261.07,230.2 261.37,229.57 261.67,228.64 262.28,228.03 
			262.89,227.1 263.5,226.48 264.11,225.86 264.71,225.24 265.32,224.93 265.92,224.31 266.53,224 267.44,224 268.05,223.7 
			268.95,223.7 269.56,223.7 270.47,223.7 271.08,224 271.99,224.31 272.6,224.63 273.2,225.24 273.81,225.55 274.42,225.86 
			275.02,226.48 275.33,227.1 275.63,227.41 275.94,228.03 276.24,228.34 276.54,228.96 276.54,229.57 276.84,230.2 276.84,230.82 
			276.84,231.43 276.54,231.75 276.54,232.36 276.24,232.98 		"/>
		<polygon class="st2" points="279.87,229.58 290.19,234.53 289.28,236.69 281.39,232.98 279.57,236.69 286.86,240.41 
			285.95,242.27 278.66,238.86 276.54,243.2 284.73,247.22 283.82,249.7 273.2,244.43 		"/>
		<polygon class="st2" points="290.19,234.84 293.83,235.77 294.44,249.39 301.41,237.63 305.05,238.86 301.12,254.65 
			298.68,254.03 302.03,241.03 294.74,253.1 292.31,252.17 291.71,238.24 288.37,251.25 285.95,250.62 		"/>
		<polygon class="st2" points="306.58,239.17 318.1,240.41 317.8,242.89 308.99,241.65 308.4,245.98 316.58,246.91 316.28,249.39 
			308.09,248.46 307.48,253.41 316.58,254.34 316.28,256.82 304.45,255.27 		"/>
		<polygon class="st2" points="318.71,240.41 321.43,240.41 329.02,252.48 329.02,240.1 331.45,240.1 331.75,256.51 329.02,256.51 
			321.13,244.43 321.43,256.82 319.01,256.82 		"/>
		<polygon class="st2" points="332.06,239.79 344.49,237.62 344.8,240.11 339.94,241.03 342.37,254.65 339.64,255.27 337.21,241.34 
			332.36,242.27 		"/>
		<polygon class="st2" points="366.94,233.91 364.51,235.15 364.21,234.84 364.21,234.53 363.91,234.22 363.61,234.22 
			363.61,233.91 363.3,233.6 363,233.6 362.7,233.6 362.39,233.3 362.08,233.3 361.79,233.3 361.48,233.3 361.18,233.6 
			360.87,233.6 360.27,233.6 359.97,233.91 359.67,233.91 359.35,234.22 359.06,234.53 358.75,234.84 358.45,235.15 358.45,235.46 
			358.15,235.46 358.15,235.76 358.15,236.08 358.15,236.39 358.15,236.69 358.15,237.01 358.45,237.32 358.45,237.62 
			358.75,237.94 359.06,237.94 359.35,238.24 359.67,238.24 359.97,238.24 360.27,238.24 360.87,238.24 361.18,238.24 
			361.79,238.24 362.08,238.24 362.7,237.94 363.61,237.94 364.51,237.94 365.12,237.62 365.73,237.62 366.33,237.62 366.94,237.62 
			367.25,237.62 367.85,237.94 368.16,237.94 368.46,238.24 368.76,238.56 369.06,238.86 369.37,239.17 369.67,239.49 
			369.67,239.79 369.98,240.11 370.28,240.72 370.28,241.34 370.28,241.65 370.58,242.27 370.28,242.89 370.28,243.2 370.28,243.82 
			369.98,244.13 369.67,244.75 369.37,245.36 369.06,245.68 368.46,245.98 368.16,246.61 367.55,246.91 366.94,247.22 
			366.33,247.53 365.73,247.84 365.12,247.84 364.21,248.15 363.61,248.15 363,248.15 362.7,248.15 362.08,248.15 361.48,248.15 
			360.87,247.84 360.56,247.53 359.97,247.22 359.67,246.91 359.06,246.61 358.75,245.98 358.45,245.68 358.15,245.06 
			360.56,243.82 360.87,244.13 360.87,244.43 361.18,244.75 361.48,245.06 361.79,245.06 362.08,245.36 362.39,245.36 362.7,245.68 
			363,245.68 363.3,245.68 363.61,245.68 363.91,245.68 364.51,245.68 364.82,245.68 365.12,245.36 365.73,245.06 366.03,245.06 
			366.03,244.75 366.33,244.75 366.64,244.43 366.94,244.43 366.94,244.13 367.25,243.82 367.55,243.51 367.55,243.2 367.55,242.89 
			367.55,242.58 367.55,242.27 367.55,241.96 367.55,241.65 367.25,241.34 366.94,241.03 366.64,241.03 366.64,240.72 
			366.33,240.72 366.03,240.72 366.03,240.41 365.73,240.41 365.42,240.41 365.12,240.41 364.82,240.41 364.51,240.41 
			363.91,240.41 363.61,240.41 363,240.72 362.7,240.72 362.39,240.72 361.79,241.03 360.87,241.03 360.27,241.03 359.97,241.03 
			359.35,241.03 358.75,241.03 358.45,240.72 358.15,240.72 357.84,240.41 357.23,240.41 356.93,240.11 356.63,239.79 
			356.63,239.49 356.32,239.17 356.02,238.86 355.71,238.56 355.71,237.94 355.42,237.32 355.42,237.01 355.42,236.39 
			355.42,236.08 355.71,235.46 355.71,235.15 356.02,234.53 356.32,234.22 356.63,233.6 356.93,233.3 357.23,232.98 357.84,232.67 
			358.15,232.36 358.75,232.05 359.35,231.75 359.97,231.43 360.56,231.12 361.18,231.12 361.79,231.12 362.39,230.82 362.7,231.12 
			363.3,231.12 363.91,231.12 364.21,231.43 364.82,231.75 365.12,232.05 365.42,232.36 366.03,232.67 366.33,232.98 366.64,233.6 
					"/>
		<polygon class="st2" points="363.91,230.2 366.64,228.34 373.91,232.67 373.31,224.31 376.04,222.45 376.34,233.91 379.68,239.49 
			377.56,241.03 374.22,235.46 		"/>
		<polygon class="st2" points="387.87,218.74 385.75,220.29 385.45,220.29 385.45,219.98 385.14,219.67 384.84,219.67 
			384.54,219.36 384.24,219.36 383.93,219.36 383.63,219.36 383.33,219.36 383.02,219.36 382.72,219.36 382.41,219.36 
			382.11,219.67 381.8,219.67 381.5,219.98 381.2,220.29 380.9,220.29 380.6,220.6 380.6,220.91 380.29,220.91 380.29,221.22 
			379.98,221.53 379.98,221.84 379.68,222.15 379.68,222.45 379.68,222.77 379.68,223.08 379.98,223.08 379.98,223.38 379.98,223.7 
			380.29,223.7 380.29,224 380.6,224 380.6,224.31 380.9,224.31 381.2,224.31 381.5,224.63 381.8,224.63 382.11,224.63 
			382.41,224.31 382.72,224.31 383.33,224.31 383.63,224 384.24,223.7 384.84,223.7 385.45,223.38 386.36,223.08 386.96,222.77 
			387.57,222.45 388.18,222.45 388.78,222.45 389.09,222.45 389.69,222.45 390,222.45 390.3,222.45 390.6,222.77 390.91,222.77 
			391.51,223.08 391.81,223.38 392.12,223.7 392.12,224 392.72,224.63 392.72,224.93 393.03,225.55 393.03,225.86 393.33,226.48 
			393.33,227.1 393.33,227.41 393.03,228.03 393.03,228.64 392.72,229.27 392.42,229.58 392.12,230.2 391.81,230.5 391.21,231.12 
			390.91,231.43 390.3,232.05 389.69,232.36 389.09,232.67 388.48,232.98 387.87,233.29 387.26,233.6 386.96,233.6 386.36,233.6 
			385.75,233.6 385.14,233.6 384.54,233.6 384.24,233.29 383.63,232.98 383.33,232.67 382.72,232.36 382.11,231.75 381.8,231.43 
			383.93,229.89 384.24,230.2 384.54,230.2 384.54,230.5 384.84,230.82 385.14,230.82 385.45,230.82 386.05,231.12 386.36,231.12 
			386.66,231.12 386.96,231.12 387.26,230.82 387.57,230.82 388.18,230.5 388.48,230.5 388.78,230.2 389.09,229.89 389.39,229.89 
			389.69,229.58 389.69,229.27 390,228.96 390.3,228.96 390.3,228.64 390.6,228.34 390.6,228.03 390.6,227.72 390.6,227.41 
			390.6,227.1 390.6,226.79 390.6,226.48 390.3,226.48 390.3,226.17 390,226.17 390,225.86 389.69,225.86 389.69,225.55 
			389.39,225.55 389.09,225.55 389.09,225.24 388.78,225.24 388.48,225.24 388.18,225.24 387.87,225.24 387.57,225.24 
			387.26,225.55 386.96,225.55 386.66,225.86 386.05,225.86 385.75,226.17 385.45,226.17 385.14,226.17 385.14,226.48 
			384.84,226.48 384.24,226.79 383.63,226.79 383.02,227.1 382.72,227.1 382.11,227.41 381.5,227.41 381.2,227.41 380.9,227.41 
			380.29,227.1 379.98,227.1 379.68,227.1 379.37,226.79 379.07,226.48 378.77,226.17 378.47,225.86 378.16,225.55 377.86,225.24 
			377.56,224.63 377.25,224.31 377.25,223.7 377.25,223.38 377.25,222.77 377.25,222.45 377.56,221.84 377.56,221.53 377.86,220.91 
			378.16,220.29 378.47,219.98 378.77,219.36 379.07,219.06 379.68,218.74 380.29,218.12 380.6,217.81 381.2,217.5 381.8,217.19 
			382.11,216.88 382.72,216.88 383.33,216.88 383.93,216.88 384.24,216.88 384.84,216.88 385.45,216.88 385.75,217.19 
			386.36,217.19 386.66,217.5 386.96,217.81 387.57,218.43 		"/>
		<polygon class="st2" points="383.93,215.03 392.72,205.74 394.55,207.59 390.91,211 400.91,220.91 399.1,222.77 389.09,213.17 
			385.75,216.57 		"/>
		<polygon class="st2" points="393.03,205.74 399.4,196.14 401.52,197.38 396.36,204.81 399.7,207.29 404.55,200.47 406.37,201.72 
			401.83,208.52 405.77,211.31 410.93,203.57 413.05,204.81 406.37,215.03 		"/>
		<polygon class="st2" points="400.31,194.28 402.13,190.88 415.18,193.97 406.08,184.07 407.9,180.66 421.85,188.71 420.64,191.19 
			409.11,184.38 418.81,194.6 417.3,196.76 403.95,193.66 415.48,200.47 414.26,202.64 		"/>
		<rect x="208.59" y="148.15" class="st1" width="34.28" height="2.79"/>
		<rect x="402.74" y="148.15" class="st1" width="34.28" height="2.79"/>
	</g>
	<g>
		<g>
			<path class="st3" d="M32.71,267.06c-15.33,0-27.8-12.47-27.8-27.79V49.29c0-15.33,12.47-27.81,27.8-27.81h111.4
				c15.33,0,27.8,12.48,27.8,27.81v189.98c0,15.33-12.47,27.79-27.8,27.79H32.71z M11.89,239.27c0,11.48,9.34,20.82,20.82,20.82
				h111.4c11.48,0,20.82-9.34,20.82-20.82v-65.91c-23.03,13.82-49.39,21.1-76.42,21.1c-27.1,0-53.53-7.33-76.62-21.22V239.27z"/>
			<path class="st0" d="M144.11,22.98c14.53,0,26.3,11.78,26.3,26.31v189.98c0,14.53-11.77,26.3-26.3,26.3H32.71
				c-14.53,0-26.3-11.77-26.3-26.3V49.29c0-14.53,11.77-26.31,26.3-26.31H144.11 M32.71,261.59h111.4
				c12.3,0,22.32-10.01,22.32-22.32v-68.59c-22.61,14.13-49.32,22.28-77.92,22.28c-28.69,0-55.47-8.2-78.12-22.4v68.71
				C10.39,251.58,20.4,261.59,32.71,261.59 M144.11,19.98H32.71c-16.15,0-29.3,13.15-29.3,29.31v189.98
				c0,16.15,13.14,29.3,29.3,29.3h111.4c16.15,0,29.3-13.14,29.3-29.3V49.29C173.4,33.13,160.26,19.98,144.11,19.98L144.11,19.98z
				 M32.71,258.59c-10.65,0-19.32-8.67-19.32-19.32v-63.4c22.77,13.16,48.63,20.09,75.12,20.09c26.42,0,52.2-6.89,74.92-19.98v63.29
				c0,10.65-8.67,19.32-19.32,19.32H32.71L32.71,258.59z"/>
		</g>
		<path class="st0" d="M166.43,170.68v68.59c0,12.31-10.02,22.32-22.32,22.32H32.71c-12.31,0-22.32-10.01-22.32-22.32v-68.71
			c22.65,14.19,49.42,22.4,78.12,22.4C117.11,192.96,143.82,184.81,166.43,170.68z"/>
		<g>
			<g>
				<g>
					<g>
						<path class="st0" d="M88.42,96.69c-6.98,0-12.66-5.69-12.65-12.67c0.01-6.98,5.69-12.66,12.67-12.65
							c6.98,0,12.66,5.69,12.65,12.67C101.09,91.02,95.41,96.7,88.42,96.69 M88.44,76.06c-4.4,0-7.98,3.57-7.98,7.97
							c0,4.39,3.57,7.97,7.97,7.98c4.4,0,7.97-3.57,7.98-7.97C96.41,79.64,92.83,76.06,88.44,76.06"/>
						<path class="st0" d="M65.22,103.97c-4.61-5.37-7.4-12.35-7.39-19.97c0-6.07,1.79-11.72,4.84-16.49l-3.75-2.83
							c-3.65,5.56-5.78,12.19-5.78,19.31c-0.01,8.91,3.31,17.06,8.76,23.29L65.22,103.97z"/>
						<path class="st0" d="M61.89,60.77l3.32,3.32c1.02-1.19,2.13-2.3,3.31-3.32l-3.32-3.32C64.03,58.48,62.92,59.59,61.89,60.77"/>
						<path class="st0" d="M88.53,48.65c-7.16,0-13.83,2.14-19.41,5.81l2.82,3.75c4.79-3.09,10.48-4.88,16.58-4.88
							c8,0.01,15.45,3.03,21.1,8.42l4.1-2.53C107.12,52.47,98.17,48.66,88.53,48.65"/>
						<path class="st0" d="M102.62,97.16c-3.53,3.79-8.55,6.16-14.13,6.16c-10.64-0.01-19.28-8.67-19.28-19.3
							c0.01-10.64,8.67-19.28,19.3-19.28c3.94,0,7.71,1.21,10.87,3.37l4.28-2.65c-4.22-3.45-9.54-5.4-15.14-5.41
							c-13.22-0.01-23.99,10.74-24,23.96C64.52,97.23,75.27,108,88.49,108.01c7.14,0.01,13.56-3.13,17.96-8.09L102.62,97.16z"/>
						<path class="st0" d="M105.57,109.52c-4.89,3.29-10.77,5.2-17.09,5.2c-7.62-0.01-14.59-2.81-19.96-7.43l-3.32,3.32
							c6.22,5.46,14.37,8.79,23.28,8.79c7.42,0.01,14.31-2.29,20-6.2L105.57,109.52z"/>
						<path class="st0" d="M116.89,62.78l-13.71,8.48c0,0,4.62,5.36,4.62,12.78c0,3.38-0.88,6.56-2.42,9.32l3.82,2.76
							c2.08-3.55,3.28-7.67,3.28-12.08c0-3.96-0.97-7.82-2.81-11.29l5.72-3.54c2.5,4.53,3.8,9.61,3.8,14.83
							c-0.01,8.92-3.84,16.96-9.94,22.56l2.91,3.69c7.18-6.47,11.72-15.84,11.72-26.25C123.88,71.46,116.89,62.78,116.89,62.78"/>
					</g>
					<g>
						<path class="st0" d="M63.28,136.97c-5.47,0-9.93,4.43-9.93,9.89c0,5.46,4.45,9.9,9.92,9.9c5.48,0,9.93-4.43,9.94-9.89
							C73.21,141.42,68.76,136.97,63.28,136.97 M63.27,152.7c-3.23,0-5.85-2.62-5.85-5.84c0-3.22,2.63-5.83,5.86-5.83
							c3.23,0,5.85,2.62,5.85,5.84C69.13,150.09,66.5,152.7,63.27,152.7"/>
						<path class="st0" d="M30.06,156.14l-4.15,0l0.01-16.91l4.15,0L30.06,156.14z M27.99,137.07c-1.41,0-2.52-1.1-2.52-2.51
							c0-1.41,1.11-2.51,2.52-2.51c1.41,0,2.52,1.1,2.52,2.51C30.51,135.98,29.41,137.07,27.99,137.07"/>
						<path class="st0" d="M86.47,136.92c-5.47,0-9.93,4.43-9.94,9.89c0,0,0,9.51,0,9.51l4.38,0l0.01-9.81
							c0-3.05,2.49-5.52,5.55-5.52c3.02,0,5.48,2.42,5.54,5.42L92,156.33l4.38,0l0.01-9.51C96.39,141.37,91.94,136.93,86.47,136.92"
							/>
						<path class="st0" d="M109.72,153.03L109.72,153.03c0,0-0.65,0.05-0.9,0.05c-1.79,0-2.63-0.45-2.63-2.97l0.01-9.68l3.7,0
							l0-3.23l-3.69,0l0-3.79l-4.38,0l0,3.79l-2.52,0l0,3.21l2.52,0.01l-0.01,9.09c0,1.32,0.1,3.24,0.93,4.76
							c0.92,1.67,2.54,2.52,4.83,2.52c1.1,0,2.14-0.21,2.14-0.21L109.72,153.03z"/>
						<path class="st0" d="M43.88,156.8c-5.5,0-9.97-4.47-9.97-9.95c0-5.48,4.48-9.94,9.99-9.94c4.65,0,7.25,3.12,7.25,3.12
							l-2.65,3.28c0,0-1.64-2.24-4.6-2.24c-3.2,0-5.81,2.59-5.81,5.78s2.6,5.79,5.8,5.79c3.04,0,4.64-2.28,4.64-2.28l2.67,3.27
							C51.19,153.63,48.54,156.8,43.88,156.8"/>
						<path class="st0" d="M144.23,156.8c-5.5,0-9.98-4.47-9.97-9.95c0-5.48,4.48-9.94,9.99-9.94c4.65,0,7.25,3.12,7.25,3.12
							l-2.65,3.28c0,0-1.64-2.24-4.6-2.24c-3.2,0-5.81,2.59-5.81,5.78c0,3.19,2.6,5.79,5.8,5.79c3.04,0,4.64-2.28,4.64-2.28
							l2.67,3.27C151.54,153.63,148.89,156.8,144.23,156.8"/>
						<path class="st0" d="M121.91,136.82c-5.82,0-9.32,4.82-9.32,10.05c0,5.84,4.07,9.92,9.91,9.92c5.86,0,8.12-4.39,8.12-4.39
							l-2.99-2.24c0,0-1.52,2.7-5.05,2.7c-3.11,0-5.49-1.94-5.68-4.86l14.14,0.01c0,0,0.07-0.92,0.07-1.24
							C131.11,142.51,128.98,136.82,121.91,136.82 M117.06,144.79c0.35-2.51,2.4-4.18,4.88-4.18c2.6,0,4.5,1.64,4.74,4.19
							L117.06,144.79z"/>
					</g>
				</g>
			</g>
		</g>
	</g>
	<g>
		<path class="st3" d="M30.24,232.96v-18.44h3.5v18.44H30.24z"/>
		<path class="st3" d="M37.32,231.74l0.79-2.85c0.67,0.34,1.43,0.65,2.28,0.91c0.85,0.26,1.63,0.39,2.33,0.39
			c1.09,0,1.91-0.17,2.47-0.52c0.56-0.34,0.84-0.84,0.84-1.49c0-0.45-0.22-0.86-0.66-1.23c-0.44-0.37-1.13-0.81-2.05-1.32
			l-0.81-0.49c-1.21-0.72-2.17-1.35-2.89-1.87c-0.71-0.52-1.33-1.14-1.84-1.86c-0.52-0.71-0.77-1.51-0.77-2.4
			c0-0.94,0.25-1.78,0.76-2.54s1.23-1.34,2.18-1.76c0.95-0.43,2.08-0.64,3.4-0.64c1.55,0,3.29,0.46,5.21,1.38l-1.17,2.82
			c-0.74-0.36-1.42-0.64-2.02-0.84c-0.61-0.2-1.26-0.3-1.97-0.3c-0.81,0-1.48,0.16-1.99,0.47c-0.51,0.32-0.77,0.78-0.77,1.4
			c0,0.52,0.2,0.96,0.61,1.32c0.41,0.35,1.07,0.8,1.99,1.34l0.87,0.49l0.79,0.46c1.07,0.62,1.92,1.15,2.55,1.61
			c0.63,0.46,1.16,1.02,1.59,1.68c0.42,0.66,0.64,1.43,0.64,2.32c0,0.99-0.27,1.87-0.8,2.63c-0.53,0.76-1.32,1.36-2.36,1.79
			c-1.04,0.43-2.28,0.65-3.73,0.65c-0.76,0-1.7-0.17-2.83-0.5C38.81,232.48,37.93,232.12,37.32,231.74z"/>
		<path class="st3" d="M60.32,214.09c1.86,0,3.48,0.42,4.85,1.26c1.37,0.84,2.42,1.98,3.13,3.43c0.71,1.45,1.07,3.06,1.07,4.85
			c0,1.88-0.38,3.55-1.14,5c-0.76,1.46-1.82,2.59-3.19,3.42c-1.36,0.82-2.94,1.25-4.73,1.29c-1.86,0-3.48-0.42-4.84-1.26
			c-1.36-0.84-2.4-1.98-3.12-3.42c-0.71-1.44-1.07-3.05-1.07-4.84c0-1.86,0.37-3.53,1.13-4.99c0.75-1.46,1.81-2.61,3.19-3.44
			C56.97,214.56,58.54,214.13,60.32,214.09z M54.95,223.8c0,1.28,0.22,2.43,0.65,3.43c0.43,1,1.05,1.78,1.86,2.33
			c0.8,0.55,1.75,0.83,2.83,0.83c1.01,0,1.93-0.25,2.75-0.75c0.82-0.5,1.47-1.26,1.95-2.28c0.48-1.02,0.72-2.26,0.72-3.73
			c0-1.27-0.22-2.4-0.65-3.39c-0.43-0.99-1.06-1.77-1.87-2.33c-0.81-0.56-1.75-0.84-2.82-0.84c-0.98,0-1.88,0.28-2.7,0.83
			c-0.82,0.55-1.48,1.34-1.98,2.36C55.19,221.28,54.95,222.46,54.95,223.8z"/>
		<path class="st3" d="M90.72,231.36h-2.49v3.47h-3.55v-3.47h-7.51l-0.46-2.9l8.89-10.98h2.63v10.98h2.85L90.72,231.36z
			 M80.49,228.46h4.18v-5.34L80.49,228.46z"/>
		<path class="st3" d="M96.57,227.38h-3.12l0.49-9.76h9.93l-0.38,2.85h-6.56l-0.16,3.23c0.52-0.27,1.19-0.41,2.01-0.41
			c1.3,0,2.4,0.26,3.31,0.77s1.58,1.2,2.03,2.06c0.45,0.86,0.69,1.81,0.7,2.86c0,1.18-0.27,2.22-0.81,3.15
			c-0.54,0.92-1.32,1.64-2.32,2.14c-1,0.51-2.18,0.76-3.54,0.76c-0.94,0-1.93-0.16-2.97-0.47c-1.04-0.32-2-0.72-2.89-1.21l1.73-2.47
			c0.76,0.42,1.46,0.72,2.09,0.91c0.63,0.19,1.34,0.29,2.11,0.29c0.98,0,1.79-0.28,2.43-0.84c0.64-0.56,0.96-1.31,0.96-2.25
			c0-0.87-0.25-1.56-0.76-2.09c-0.51-0.52-1.16-0.79-1.95-0.79c-0.58,0-1.08,0.13-1.49,0.39C97,226.76,96.72,227.05,96.57,227.38z"
			/>
		<path class="st3" d="M106.17,225.24c0-1.52,0.33-2.88,0.98-4.1c0.65-1.21,1.55-2.16,2.7-2.85c1.15-0.69,2.45-1.03,3.89-1.03
			c1.43,0,2.72,0.34,3.86,1.02c1.15,0.68,2.04,1.62,2.68,2.83c0.64,1.21,0.96,2.57,0.96,4.07c0,1.56-0.33,2.95-0.98,4.19
			c-0.65,1.24-1.55,2.21-2.7,2.9c-1.15,0.7-2.44,1.04-3.86,1.04c-1.43,0-2.72-0.35-3.86-1.04c-1.15-0.7-2.05-1.66-2.7-2.89
			C106.5,228.16,106.17,226.77,106.17,225.24z M109.4,225.15c0,0.98,0.18,1.86,0.56,2.64c0.37,0.79,0.89,1.4,1.55,1.84
			c0.66,0.44,1.41,0.66,2.24,0.66c0.83,0,1.58-0.22,2.24-0.65c0.66-0.43,1.18-1.03,1.55-1.79c0.37-0.76,0.56-1.62,0.56-2.58
			c0-0.96-0.19-1.82-0.57-2.59c-0.38-0.77-0.9-1.37-1.56-1.8c-0.66-0.43-1.41-0.65-2.24-0.65c-0.81,0-1.55,0.21-2.21,0.64
			c-0.66,0.43-1.18,1.01-1.55,1.75C109.59,223.37,109.4,224.21,109.4,225.15z"/>
		<path class="st3" d="M122.61,225.24c0-1.52,0.33-2.88,0.98-4.1c0.65-1.21,1.55-2.16,2.7-2.85c1.15-0.69,2.45-1.03,3.89-1.03
			c1.43,0,2.72,0.34,3.86,1.02c1.15,0.68,2.04,1.62,2.69,2.83c0.64,1.21,0.96,2.57,0.96,4.07c0,1.56-0.33,2.95-0.98,4.19
			c-0.65,1.24-1.55,2.21-2.7,2.9c-1.15,0.7-2.44,1.04-3.86,1.04s-2.72-0.35-3.86-1.04c-1.15-0.7-2.05-1.66-2.7-2.89
			C122.93,228.16,122.61,226.77,122.61,225.24z M125.83,225.15c0,0.98,0.19,1.86,0.56,2.64c0.37,0.79,0.88,1.4,1.55,1.84
			c0.66,0.44,1.41,0.66,2.24,0.66c0.83,0,1.58-0.22,2.24-0.65c0.66-0.43,1.17-1.03,1.55-1.79s0.56-1.62,0.56-2.58
			c0-0.96-0.19-1.82-0.57-2.59c-0.38-0.77-0.9-1.37-1.56-1.8c-0.66-0.43-1.41-0.65-2.24-0.65c-0.81,0-1.55,0.21-2.21,0.64
			c-0.66,0.43-1.18,1.01-1.55,1.75C126.02,223.37,125.83,224.21,125.83,225.15z"/>
		<path class="st3" d="M143.06,232.96v-11.44l-3.09,1.19l-1.33-2.63l5.59-2.47h2.36v15.35H143.06z"/>
	</g>
</g>
</svg>
