<?xml version="1.0" encoding="utf-8"?>
<!-- Generator: Adobe Illustrator 26.0.3, SVG Export Plug-In . SVG Version: 6.00 Build 0)  -->
<svg version="1.1" id="Capa_1" xmlns="http://www.w3.org/2000/svg" xmlns:xlink="http://www.w3.org/1999/xlink" x="0px" y="0px"
	 viewBox="0 0 438 328" style="enable-background:new 0 0 438 328;" xml:space="preserve">
<style type="text/css">
	.st0{fill:#FFFFFF;}
	.st1{fill-rule:evenodd;clip-rule:evenodd;fill:#FFFFFF;}
	.st2{fill-rule:evenodd;clip-rule:evenodd;fill:#00355B;}
	.st3{fill:#0082CA;}
</style>
<g>
	<g>
		<path class="st0" d="M1.63,302.66l1.23-2.18c0.21-0.34,0.71-0.29,0.89-0.16c0.1,0.05,1.99,1.44,3.72,1.44
			c1.05,0,1.81-0.65,1.81-1.57c0-1.1-0.92-1.94-2.7-2.65c-2.25-0.89-5.09-2.65-5.09-5.79c0-2.6,2.02-5.22,6.06-5.22
			c2.73,0,4.82,1.39,5.61,1.97c0.31,0.18,0.26,0.65,0.16,0.84l-1.34,2.02c-0.18,0.29-0.66,0.52-0.89,0.34
			c-0.24-0.13-2.15-1.57-3.75-1.57c-0.94,0-1.65,0.63-1.65,1.34c0,0.97,0.79,1.7,2.86,2.54c2.04,0.81,5.3,2.41,5.3,5.98
			c0,2.7-2.33,5.43-6.19,5.43c-3.41,0-5.3-1.41-5.9-2.02C1.5,303.13,1.42,303.02,1.63,302.66z"/>
		<path class="st0" d="M14.68,304.46l8.2-17.64c0.08-0.16,0.26-0.29,0.45-0.29h0.26c0.18,0,0.37,0.13,0.45,0.29l8.2,17.64
			c0.16,0.34-0.05,0.68-0.45,0.68h-2.91c-0.47,0-0.68-0.16-0.92-0.66l-0.94-2.07H19.9l-0.94,2.1c-0.13,0.31-0.42,0.63-0.94,0.63
			h-2.88C14.74,305.15,14.53,304.81,14.68,304.46z M25.46,298.86l-1.99-4.33h-0.03l-1.97,4.33H25.46z"/>
		<path class="st0" d="M32.99,300.01v-2.39c0-0.29,0.21-0.5,0.5-0.5h6c0.29,0,0.5,0.21,0.5,0.5v2.39c0,0.26-0.21,0.47-0.5,0.47h-6
			C33.2,300.48,32.99,300.27,32.99,300.01z"/>
		<path class="st0" d="M51.42,286.53c2.62,0,4.56,0.81,6.34,2.44c0.24,0.21,0.24,0.52,0.03,0.73l-2.04,2.12
			c-0.18,0.18-0.47,0.18-0.66,0c-0.97-0.87-2.25-1.34-3.54-1.34c-2.96,0-5.14,2.46-5.14,5.4c0,2.91,2.2,5.32,5.16,5.32
			c1.23,0,2.57-0.45,3.51-1.26c0.18-0.16,0.52-0.16,0.68,0.03l2.04,2.18c0.18,0.18,0.16,0.52-0.03,0.71
			c-1.78,1.73-4.04,2.54-6.37,2.54c-5.24,0-9.46-4.17-9.46-9.41C41.95,290.75,46.17,286.53,51.42,286.53z"/>
		<path class="st0" d="M60.93,287.29c0-0.26,0.21-0.5,0.5-0.5h10.85c0.29,0,0.5,0.24,0.5,0.5v2.86c0,0.26-0.21,0.5-0.5,0.5h-7.26
			v3.25H71c0.26,0,0.5,0.24,0.5,0.5v2.86c0,0.29-0.24,0.5-0.5,0.5h-5.98v3.54h7.26c0.29,0,0.5,0.24,0.5,0.5v2.86
			c0,0.26-0.21,0.5-0.5,0.5H61.43c-0.29,0-0.5-0.24-0.5-0.5V287.29z"/>
		<path class="st0" d="M76.3,287.29c0-0.26,0.21-0.5,0.5-0.5h7.84c3.15,0,5.71,2.54,5.71,5.66c0,2.41-1.6,4.35-3.88,5.27l3.59,6.66
			c0.18,0.34,0,0.76-0.45,0.76h-3.49c-0.21,0-0.37-0.13-0.42-0.24l-3.49-6.95h-1.81v6.69c0,0.26-0.24,0.5-0.5,0.5H76.8
			c-0.29,0-0.5-0.24-0.5-0.5V287.29z M84.3,294.63c1.07,0,1.99-1,1.99-2.1c0-1.1-0.92-1.99-1.99-1.99h-3.88v4.09H84.3z"/>
		<path class="st0" d="M101.39,286.74c0.39-0.13,0.68,0.05,0.81,0.42l0.76,2.02c0.1,0.32,0.03,0.6-0.5,0.76
			c-1.23,0.39-4.72,1.6-5.27,4.3c0.68-0.29,1.78-0.52,2.49-0.52c2.46,0,5.22,1.81,5.22,5.69c0,3.3-2.73,6-6,6
			c-4.06,0-6.32-3.04-6.32-7.13C92.58,290.57,99.14,287.45,101.39,286.74z M98.85,301.79c1.39,0,2.52-1.15,2.52-2.52
			c0-1.39-1.13-2.54-2.52-2.54s-2.52,1.15-2.52,2.54C96.33,300.64,97.46,301.79,98.85,301.79z"/>
		<path class="st0" d="M115.5,286.74c0.39-0.13,0.68,0.05,0.81,0.42l0.76,2.02c0.1,0.32,0.03,0.6-0.5,0.76
			c-1.23,0.39-4.72,1.6-5.27,4.3c0.68-0.29,1.78-0.52,2.49-0.52c2.46,0,5.22,1.81,5.22,5.69c0,3.3-2.73,6-6,6
			c-4.06,0-6.32-3.04-6.32-7.13C106.69,290.57,113.24,287.45,115.5,286.74z M112.95,301.79c1.39,0,2.52-1.15,2.52-2.52
			c0-1.39-1.13-2.54-2.52-2.54s-2.52,1.15-2.52,2.54C110.44,300.64,111.57,301.79,112.95,301.79z"/>
		<path class="st0" d="M121.29,296.23c0-5.74,2.44-9.17,6.71-9.17c4.27,0,6.71,3.43,6.71,9.17s-2.44,9.17-6.71,9.17
			C123.73,305.41,121.29,301.97,121.29,296.23z M130.49,296.23c0-3.43-0.89-5.37-2.49-5.37c-1.6,0-2.49,1.94-2.49,5.37
			c0,3.46,0.89,5.37,2.49,5.37C129.6,301.61,130.49,299.69,130.49,296.23z"/>
		<path class="st0" d="M137.65,296.23c0-5.74,2.44-9.17,6.71-9.17c4.27,0,6.71,3.43,6.71,9.17s-2.44,9.17-6.71,9.17
			C140.09,305.41,137.65,301.97,137.65,296.23z M146.86,296.23c0-3.43-0.89-5.37-2.49-5.37c-1.6,0-2.49,1.94-2.49,5.37
			c0,3.46,0.89,5.37,2.49,5.37C145.96,301.61,146.86,299.69,146.86,296.23z"/>
		<path class="st0" d="M156.19,292.85h-2.52c-0.26,0-0.47-0.24-0.47-0.5v-1.65c0-0.11,0.08-0.32,0.16-0.39l3.83-2.99h2.41
			c0.26,0,0.47,0.24,0.47,0.5v16.83c0,0.26-0.21,0.5-0.47,0.5h-2.91c-0.29,0-0.5-0.24-0.5-0.5V292.85z"/>
		<path class="st0" d="M172.13,286.74c0.39-0.13,0.68,0.05,0.81,0.42l0.76,2.02c0.1,0.32,0.03,0.6-0.5,0.76
			c-1.23,0.39-4.72,1.6-5.27,4.3c0.68-0.29,1.78-0.52,2.49-0.52c2.46,0,5.22,1.81,5.22,5.69c0,3.3-2.73,6-6,6
			c-4.06,0-6.32-3.04-6.32-7.13C163.32,290.57,169.88,287.45,172.13,286.74z M169.59,301.79c1.39,0,2.52-1.15,2.52-2.52
			c0-1.39-1.13-2.54-2.52-2.54s-2.52,1.15-2.52,2.54C167.07,300.64,168.2,301.79,169.59,301.79z"/>
	</g>
	<g>
		<path class="st0" d="M221.26,286.53c2.62,0,4.56,0.81,6.34,2.44c0.24,0.21,0.24,0.52,0.03,0.73l-2.05,2.12
			c-0.18,0.18-0.47,0.18-0.66,0c-0.97-0.87-2.25-1.34-3.54-1.34c-2.96,0-5.14,2.46-5.14,5.4c0,2.91,2.2,5.32,5.16,5.32
			c1.23,0,2.57-0.45,3.51-1.26c0.18-0.16,0.52-0.16,0.68,0.03l2.04,2.18c0.18,0.18,0.16,0.52-0.03,0.71
			c-1.78,1.73-4.04,2.54-6.37,2.54c-5.24,0-9.46-4.17-9.46-9.41C211.8,290.75,216.02,286.53,221.26,286.53z"/>
		<path class="st0" d="M238.78,286.53c5.24,0,9.44,4.22,9.44,9.46c0,5.24-4.19,9.41-9.44,9.41c-5.24,0-9.41-4.17-9.41-9.41
			C229.37,290.75,233.54,286.53,238.78,286.53z M238.78,301.21c2.88,0,5.24-2.36,5.24-5.22c0-2.88-2.36-5.27-5.24-5.27
			c-2.86,0-5.22,2.39-5.22,5.27C233.56,298.86,235.92,301.21,238.78,301.21z"/>
		<path class="st0" d="M250.19,300.01v-2.39c0-0.29,0.21-0.5,0.5-0.5h6c0.29,0,0.5,0.21,0.5,0.5v2.39c0,0.26-0.21,0.47-0.5,0.47h-6
			C250.4,300.48,250.19,300.27,250.19,300.01z"/>
		<path class="st0" d="M258.76,302.66l1.23-2.18c0.21-0.34,0.71-0.29,0.89-0.16c0.1,0.05,1.99,1.44,3.72,1.44
			c1.05,0,1.81-0.65,1.81-1.57c0-1.1-0.92-1.94-2.7-2.65c-2.25-0.89-5.09-2.65-5.09-5.79c0-2.6,2.02-5.22,6.06-5.22
			c2.73,0,4.82,1.39,5.61,1.97c0.31,0.18,0.26,0.65,0.16,0.84l-1.34,2.02c-0.18,0.29-0.66,0.52-0.89,0.34
			c-0.24-0.13-2.15-1.57-3.75-1.57c-0.94,0-1.65,0.63-1.65,1.34c0,0.97,0.79,1.7,2.86,2.54c2.05,0.81,5.3,2.41,5.3,5.98
			c0,2.7-2.33,5.43-6.19,5.43c-3.41,0-5.3-1.41-5.9-2.02C258.63,303.13,258.55,303.02,258.76,302.66z"/>
		<path class="st0" d="M271.82,304.46l8.2-17.64c0.08-0.16,0.26-0.29,0.45-0.29h0.26c0.18,0,0.37,0.13,0.45,0.29l8.2,17.64
			c0.16,0.34-0.05,0.68-0.45,0.68h-2.91c-0.47,0-0.68-0.16-0.92-0.66l-0.94-2.07h-7.13l-0.94,2.1c-0.13,0.31-0.42,0.63-0.94,0.63
			h-2.88C271.87,305.15,271.66,304.81,271.82,304.46z M282.59,298.86l-1.99-4.33h-0.03l-1.97,4.33H282.59z"/>
		<path class="st0" d="M290.12,300.01v-2.39c0-0.29,0.21-0.5,0.5-0.5h6c0.29,0,0.5,0.21,0.5,0.5v2.39c0,0.26-0.21,0.47-0.5,0.47h-6
			C290.33,300.48,290.12,300.27,290.12,300.01z"/>
		<path class="st0" d="M308.55,286.53c2.62,0,4.56,0.81,6.34,2.44c0.24,0.21,0.24,0.52,0.03,0.73l-2.05,2.12
			c-0.18,0.18-0.47,0.18-0.66,0c-0.97-0.87-2.25-1.34-3.54-1.34c-2.96,0-5.14,2.46-5.14,5.4c0,2.91,2.2,5.32,5.16,5.32
			c1.23,0,2.57-0.45,3.51-1.26c0.18-0.16,0.52-0.16,0.68,0.03l2.04,2.18c0.18,0.18,0.16,0.52-0.03,0.71
			c-1.78,1.73-4.04,2.54-6.37,2.54c-5.24,0-9.46-4.17-9.46-9.41C299.09,290.75,303.31,286.53,308.55,286.53z"/>
		<path class="st0" d="M318.07,287.29c0-0.26,0.21-0.5,0.5-0.5h10.85c0.29,0,0.5,0.24,0.5,0.5v2.86c0,0.26-0.21,0.5-0.5,0.5h-7.26
			v3.25h5.98c0.26,0,0.5,0.24,0.5,0.5v2.86c0,0.29-0.24,0.5-0.5,0.5h-5.98v3.54h7.26c0.29,0,0.5,0.24,0.5,0.5v2.86
			c0,0.26-0.21,0.5-0.5,0.5h-10.85c-0.29,0-0.5-0.24-0.5-0.5V287.29z"/>
		<path class="st0" d="M333.43,287.29c0-0.26,0.21-0.5,0.5-0.5h7.84c3.15,0,5.71,2.54,5.71,5.66c0,2.41-1.6,4.35-3.88,5.27
			l3.59,6.66c0.18,0.34,0,0.76-0.45,0.76h-3.49c-0.21,0-0.37-0.13-0.42-0.24l-3.49-6.95h-1.81v6.69c0,0.26-0.24,0.5-0.5,0.5h-3.12
			c-0.29,0-0.5-0.24-0.5-0.5V287.29z M341.43,294.63c1.07,0,1.99-1,1.99-2.1c0-1.1-0.92-1.99-1.99-1.99h-3.88v4.09H341.43z"/>
		<path class="st0" d="M358.52,286.74c0.39-0.13,0.68,0.05,0.81,0.42l0.76,2.02c0.1,0.32,0.03,0.6-0.5,0.76
			c-1.23,0.39-4.72,1.6-5.27,4.3c0.68-0.29,1.78-0.52,2.49-0.52c2.46,0,5.22,1.81,5.22,5.69c0,3.3-2.73,6-6,6
			c-4.06,0-6.32-3.04-6.32-7.13C349.72,290.57,356.27,287.45,358.52,286.74z M355.98,301.79c1.39,0,2.52-1.15,2.52-2.52
			c0-1.39-1.13-2.54-2.52-2.54s-2.52,1.15-2.52,2.54C353.46,300.64,354.59,301.79,355.98,301.79z"/>
		<path class="st0" d="M372.63,286.74c0.39-0.13,0.68,0.05,0.81,0.42l0.76,2.02c0.1,0.32,0.03,0.6-0.5,0.76
			c-1.23,0.39-4.72,1.6-5.27,4.3c0.68-0.29,1.78-0.52,2.49-0.52c2.46,0,5.22,1.81,5.22,5.69c0,3.3-2.73,6-6,6
			c-4.06,0-6.32-3.04-6.32-7.13C363.82,290.57,370.38,287.45,372.63,286.74z M370.09,301.79c1.39,0,2.52-1.15,2.52-2.52
			c0-1.39-1.13-2.54-2.52-2.54s-2.52,1.15-2.52,2.54C367.57,300.64,368.7,301.79,370.09,301.79z"/>
		<path class="st0" d="M378.43,296.23c0-5.74,2.44-9.17,6.71-9.17c4.27,0,6.71,3.43,6.71,9.17s-2.44,9.17-6.71,9.17
			C380.86,305.41,378.43,301.97,378.43,296.23z M387.63,296.23c0-3.43-0.89-5.37-2.49-5.37c-1.6,0-2.49,1.94-2.49,5.37
			c0,3.46,0.89,5.37,2.49,5.37C386.74,301.61,387.63,299.69,387.63,296.23z"/>
		<path class="st0" d="M394.79,296.23c0-5.74,2.44-9.17,6.71-9.17c4.27,0,6.71,3.43,6.71,9.17s-2.44,9.17-6.71,9.17
			C397.23,305.41,394.79,301.97,394.79,296.23z M403.99,296.23c0-3.43-0.89-5.37-2.49-5.37c-1.6,0-2.49,1.94-2.49,5.37
			c0,3.46,0.89,5.37,2.49,5.37C403.1,301.61,403.99,299.69,403.99,296.23z"/>
		<path class="st0" d="M413.33,292.85h-2.52c-0.26,0-0.47-0.24-0.47-0.5v-1.65c0-0.11,0.08-0.32,0.16-0.39l3.83-2.99h2.41
			c0.26,0,0.47,0.24,0.47,0.5v16.83c0,0.26-0.21,0.5-0.47,0.5h-2.91c-0.29,0-0.5-0.24-0.5-0.5V292.85z"/>
		<path class="st0" d="M429.27,286.74c0.39-0.13,0.68,0.05,0.81,0.42l0.76,2.02c0.1,0.32,0.03,0.6-0.5,0.76
			c-1.23,0.39-4.72,1.6-5.27,4.3c0.68-0.29,1.78-0.52,2.49-0.52c2.46,0,5.22,1.81,5.22,5.69c0,3.3-2.73,6-6,6
			c-4.06,0-6.32-3.04-6.32-7.13C420.46,290.57,427.01,287.45,429.27,286.74z M426.72,301.79c1.39,0,2.52-1.15,2.52-2.52
			c0-1.39-1.13-2.54-2.52-2.54s-2.52,1.15-2.52,2.54C424.21,300.64,425.33,301.79,426.72,301.79z"/>
	</g>
	<g>
		<rect x="250.55" y="120.52" class="st1" width="145" height="5.88"/>
		<rect x="250.55" y="173.77" class="st1" width="145" height="4.33"/>
		<polygon class="st1" points="371.28,146.83 367.95,146.83 367.95,145.29 377.65,135.07 378.56,135.07 378.56,141.88 
			386.75,141.88 386.75,146.83 378.56,146.83 378.56,155.5 378.56,156.12 378.56,156.74 378.86,157.05 378.86,157.67 378.86,157.98 
			379.17,158.29 379.17,158.6 379.47,158.91 379.77,159.22 380.08,159.53 380.38,159.53 380.99,159.84 381.29,159.84 381.9,159.84 
			382.21,159.84 382.5,159.84 382.81,159.84 383.11,159.84 383.41,159.84 383.72,159.53 384.02,159.53 384.32,159.53 384.63,159.53 
			384.93,159.53 385.23,159.22 385.54,159.22 385.85,159.22 386.14,158.91 386.45,158.91 386.75,158.6 386.75,164.17 386.45,164.17 
			385.85,164.48 385.54,164.48 384.93,164.79 384.63,164.79 384.02,164.79 383.72,165.1 383.11,165.1 382.81,165.1 382.21,165.1 
			381.9,165.41 381.29,165.41 380.99,165.41 380.38,165.41 380.08,165.41 379.77,165.41 378.56,165.41 377.65,165.1 376.74,165.1 
			375.83,164.79 374.92,164.48 374.31,164.17 373.71,163.56 373.1,163.24 372.8,162.62 372.19,161.69 371.89,161.08 371.89,160.14 
			371.59,158.91 371.28,157.98 371.28,156.74 371.28,155.5 		"/>
		<path class="st1" d="M349.44,151.17h9.1v-0.63v-0.62l-0.3-0.3V149l-0.3-0.31l-0.3-0.31l-0.31-0.62l-0.3-0.31l-0.3-0.31h-0.3
			l-0.31-0.31l-0.3-0.3h-0.3h-0.6l-0.3-0.31h-0.31h-0.6l-0.61,0.31h-0.31h-0.3l-0.6,0.3l-0.31,0.31h-0.3l-0.3,0.31l-0.31,0.31
			l-0.3,0.62l-0.3,0.31l-0.3,0.31v0.63l-0.3,0.3v0.62V151.17z M365.52,162.31l-0.6,0.62l-0.6,0.31l-0.61,0.31l-0.6,0.3l-0.61,0.31
			h-0.61l-0.91,0.31l-0.6,0.31h-0.6l-0.6,0.31h-0.91h-0.61l-0.61,0.3h-0.91h-0.6h-0.91h-1.52l-1.21-0.3l-1.52-0.31l-1.21-0.31
			l-1.21-0.31l-0.92-0.62l-0.9-0.62l-1.22-0.93l-0.6-0.62l-0.91-0.93l-0.61-1.24l-0.3-0.93l-0.31-1.23l-0.3-1.23l-0.3-1.24v-1.55
			v-1.23l0.3-1.24l0.3-1.24l0.31-0.93l0.3-1.24l0.61-0.93l0.91-0.93l0.6-0.62l0.91-0.93l0.91-0.62l1.22-0.62l0.91-0.31l1.21-0.31
			l1.21-0.3l1.51-0.31h1.22h1.51l1.22,0.31l1.21,0.3l1.22,0.31l0.9,0.62l0.91,0.61l1.22,0.63l0.6,0.92l0.91,0.93l0.61,0.93l0.6,0.93
			l0.31,1.24l0.6,1.24v1.24l0.3,1.55v1.55h-16.69v0.31v0.62v0.62v0.62l0.3,0.62l0.3,0.31l0.3,0.62l0.3,0.31l0.61,0.62l0.61,0.31
			l0.3,0.31l0.6,0.3l0.61,0.31h0.91l0.61,0.3h0.91h0.61h0.6h0.61h0.61l0.6-0.3h0.61l0.6-0.31h0.31l0.6-0.3h0.61l0.61-0.31l0.6-0.31
			l0.61-0.31l0.6-0.31l0.3-0.31l0.6-0.3l0.6-0.31V162.31z"/>
		<polygon class="st1" points="314.85,143.42 314.85,164.79 307.58,164.79 307.58,130.73 313.94,130.73 329.42,151.17 
			329.42,130.73 336.7,130.73 336.7,164.79 330.93,164.79 		"/>
		<rect x="257.22" y="130.73" class="st1" width="9.1" height="34.06"/>
		<polygon class="st1" points="272.69,144.36 273.6,141.88 271.47,140.33 273.9,140.33 274.51,138.48 275.42,140.33 277.54,140.33 
			275.72,141.88 276.33,144.36 274.51,142.81 		"/>
		<polygon class="st1" points="270.56,152.41 271.47,150.24 269.35,148.69 271.78,148.69 272.38,146.53 273.3,148.69 275.42,148.69 
			273.6,150.24 274.51,152.41 272.38,151.17 		"/>
		<polygon class="st1" points="272.38,159.84 272.99,157.67 271.17,156.12 273.6,156.12 274.21,153.95 274.81,156.12 277.24,156.12 
			275.42,157.67 276.03,159.84 274.21,158.29 		"/>
		<polygon class="st1" points="278.15,165.72 278.75,163.24 276.94,161.69 279.06,161.69 279.97,159.53 280.58,161.69 283,161.69 
			281.18,163.24 281.79,165.41 279.97,164.17 		"/>
		<polygon class="st1" points="285.43,168.19 286.35,165.72 284.52,164.17 286.64,164.17 287.26,162.01 288.17,164.17 
			290.29,164.17 288.47,165.72 289.08,168.19 287.26,166.65 		"/>
		<polygon class="st1" points="293.62,165.41 294.23,163.24 292.41,161.69 294.53,161.69 295.44,159.53 296.05,161.69 
			298.48,161.69 296.66,163.24 297.26,165.41 295.44,163.86 		"/>
		<polygon class="st1" points="298.78,159.84 299.39,157.36 297.57,155.81 299.99,155.81 300.6,153.64 301.21,155.81 303.63,155.81 
			301.81,157.36 302.42,159.84 300.6,158.29 		"/>
		<polygon class="st1" points="300.6,152.41 301.21,150.24 299.39,148.69 301.81,148.69 302.42,146.53 303.02,148.69 305.45,148.69 
			303.63,150.24 304.24,152.41 302.42,151.17 		"/>
		<polygon class="st1" points="298.17,144.05 298.78,141.88 296.96,140.33 299.08,140.33 299.99,138.17 300.6,140.33 303.03,140.33 
			300.9,141.88 301.81,144.05 299.99,142.81 		"/>
		<polygon class="st1" points="292.71,138.48 293.32,136.3 291.5,134.76 293.93,134.76 294.53,132.59 295.44,134.76 297.57,134.76 
			295.75,136.3 296.35,138.48 294.53,137.23 		"/>
		<polygon class="st1" points="285.43,136.93 286.04,134.45 284.22,132.9 286.35,132.9 287.26,131.04 287.85,132.9 290.29,132.9 
			288.47,134.45 289.08,136.62 287.26,135.37 		"/>
		<polygon class="st1" points="277.85,138.48 278.45,136.3 276.63,134.76 279.06,134.76 279.66,132.59 280.27,134.76 282.71,134.76 
			280.88,136.3 281.49,138.48 279.66,137.23 		"/>
		<polygon class="st1" points="288.17,158.29 289.08,155.82 287.26,154.26 289.37,154.26 290.29,152.1 290.89,154.26 293.32,154.26 
			291.5,155.82 292.11,158.29 290.29,156.74 		"/>
		<polygon class="st1" points="297.87,172.22 298.78,169.74 296.66,168.2 299.08,168.2 299.69,166.03 300.6,168.2 302.72,168.2 
			300.9,169.74 301.81,171.91 299.69,170.67 		"/>
		<polygon class="st1" points="322.44,33.52 328.2,33.52 333.66,33.84 339.12,34.76 344.58,35.69 350.05,36.93 355.2,38.17 
			360.36,40.02 365.51,41.88 370.37,44.05 375.22,46.53 380.08,49.31 384.63,52.1 388.88,55.19 393.13,58.6 397.37,62 401.31,65.72 
			404.95,69.44 408.59,73.46 411.94,77.48 415.26,81.82 418.3,86.46 421.03,91.11 423.76,95.75 425.89,100.71 428.31,105.66 
			430.13,110.92 431.95,116.18 433.47,121.45 434.68,127.02 435.59,132.59 436.2,138.16 436.5,143.74 402.53,143.74 401.92,140.02 
			401.62,136 400.71,132.28 399.8,128.57 398.89,124.85 397.37,121.14 396.16,117.73 394.64,114.32 392.82,110.92 391,107.52 
			388.88,104.42 386.75,101.32 384.63,98.53 382.2,95.44 379.78,92.96 377.04,90.18 374.31,87.7 371.59,85.22 368.55,83.06 
			365.51,80.89 362.18,79.03 359.15,77.18 355.81,75.63 352.17,74.08 348.83,72.84 345.19,71.6 341.55,70.67 337.92,69.74 
			333.97,69.13 330.33,68.51 326.39,68.2 322.44,68.2 318.5,68.2 314.56,68.51 310.91,69.13 306.97,69.74 303.33,70.67 299.69,71.6 
			296.35,72.84 292.71,74.08 289.37,75.63 286.04,77.18 282.7,79.03 279.66,80.89 276.63,83.06 273.6,85.22 270.87,87.7 
			268.14,90.18 265.41,92.65 262.98,95.44 260.55,98.23 258.13,101.32 256,104.11 254.18,107.52 252.37,110.61 250.55,114.02 
			249.03,117.42 247.51,120.83 246.3,124.54 245.39,128.26 244.48,131.97 243.57,135.69 242.96,139.4 242.65,143.42 208.38,143.42 
			208.99,137.85 209.59,132.28 210.5,126.71 211.71,121.14 213.23,115.87 215.05,110.61 216.87,105.35 218.99,100.39 221.42,95.44 
			224.15,90.8 226.88,86.15 229.92,81.82 233.25,77.48 236.59,73.15 240.23,69.13 243.87,65.41 247.81,61.69 252.06,58.29 
			256.31,55.19 260.55,52.1 265.11,49.31 269.66,46.53 274.51,44.05 279.36,41.88 284.52,40.02 289.68,38.17 294.84,36.93 
			300.29,35.69 305.76,34.76 311.21,33.84 316.68,33.52 		"/>
		<polygon class="st1" points="242.65,155.5 242.96,159.53 243.57,163.55 244.18,167.27 245.09,170.98 245.99,174.69 247.21,178.41 
			248.72,181.82 250.24,185.53 252.06,188.93 253.88,192.04 255.7,195.13 257.82,198.23 260.25,201.33 262.68,204.11 265.11,206.9 
			267.84,209.68 270.56,212.16 273.3,214.64 276.33,216.8 279.36,218.97 282.4,220.83 285.73,222.69 289.08,224.24 292.41,225.78 
			296.05,227.02 299.69,228.25 303.33,229.5 306.97,230.11 310.92,230.73 314.56,231.36 318.49,231.66 322.44,231.66 326.39,231.66 
			330.33,231.36 333.97,230.73 337.92,230.11 341.55,229.5 345.19,228.25 348.83,227.02 352.17,225.78 355.81,224.24 359.15,222.69 
			362.18,220.83 365.51,218.97 368.55,216.8 371.59,214.64 374.31,212.16 377.04,209.68 379.78,207.2 382.2,204.42 384.63,201.63 
			387.05,198.53 389.17,195.44 391,192.34 392.82,188.93 394.64,185.53 396.16,182.13 397.67,178.72 398.89,175.01 399.8,171.29 
			400.71,167.58 401.62,163.86 401.92,159.84 402.53,156.12 436.5,156.12 436.2,161.69 435.59,167.27 434.68,172.84 433.47,178.41 
			431.95,183.68 430.13,188.93 428.31,194.2 426.19,199.16 423.76,204.11 421.03,208.75 418.3,213.39 415.26,218.04 411.94,222.38 
			408.59,226.4 404.95,230.43 401.32,234.45 397.37,237.85 393.13,241.57 388.88,244.67 384.63,247.76 380.08,250.55 375.22,253.33 
			370.67,255.81 365.51,257.98 360.66,259.84 355.51,261.69 350.05,263.24 344.89,264.17 339.43,265.41 333.66,266.03 328.2,266.34 
			322.44,266.65 316.68,266.34 311.21,266.03 305.45,265.41 299.99,264.17 294.84,262.93 289.37,261.69 284.22,259.84 
			279.36,257.98 274.21,255.81 269.35,253.33 264.8,250.55 260.25,247.76 256,244.67 251.46,241.26 247.51,237.85 243.57,234.14 
			239.93,230.43 236.29,226.4 232.95,222.06 229.62,217.73 226.58,213.39 223.85,208.75 221.12,203.8 218.69,198.85 216.57,193.89 
			214.75,188.63 212.93,183.37 211.71,178.1 210.5,172.53 209.29,166.95 208.68,161.38 208.38,155.5 		"/>
		<polygon class="st2" points="241.74,101.32 242.36,101.64 242.96,101.94 243.26,102.56 243.57,102.87 243.87,103.49 
			244.17,104.11 244.17,104.42 244.48,105.04 244.48,105.66 244.48,106.28 244.48,106.9 244.48,107.52 244.48,108.13 244.17,108.45 
			243.87,109.06 243.87,109.68 243.26,110.61 242.96,111.23 242.36,111.85 241.74,112.16 241.14,112.78 240.84,113.09 239.93,113.4 
			239.32,113.4 238.72,113.7 237.81,113.7 237.2,113.7 236.59,113.7 235.68,113.7 235.07,113.4 234.16,113.09 233.55,112.78 
			232.65,112.16 232.04,111.85 231.43,111.23 230.83,110.61 230.22,109.99 229.92,109.37 229.62,108.75 229.31,108.13 229,107.21 
			229,106.58 229,105.97 229,105.04 229,104.42 229.31,103.49 229.62,102.87 229.92,102.25 230.22,101.64 230.52,101.01 
			231.13,100.4 231.43,100.08 231.74,99.78 232.34,99.16 232.65,99.16 233.25,98.85 233.86,98.53 234.47,98.53 234.77,98.53 
			235.38,98.23 235.98,98.53 236.59,98.53 237.2,98.53 237.81,98.85 235.98,102.25 235.68,101.94 235.38,101.94 235.07,101.94 
			234.77,101.94 234.47,101.94 234.47,102.25 234.16,102.25 233.86,102.25 233.86,102.56 233.55,102.56 233.25,102.87 
			232.95,103.18 232.95,103.49 232.65,103.8 232.65,104.11 232.34,104.42 232.34,104.73 232.34,105.04 232.34,105.66 232.34,105.97 
			232.65,106.28 232.65,106.58 232.95,106.9 232.95,107.21 233.25,107.52 233.55,107.83 233.86,108.13 234.47,108.45 234.77,108.75 
			235.07,109.06 235.68,109.37 236.29,109.68 236.59,109.68 237.2,109.99 237.5,109.99 237.81,109.99 238.41,109.99 238.72,109.99 
			239.02,109.99 239.32,109.68 239.62,109.68 239.93,109.37 240.23,109.06 240.53,109.06 240.84,108.75 240.84,108.13 
			241.14,107.83 241.14,107.52 241.44,107.21 241.44,106.9 241.44,106.58 241.44,106.28 241.44,105.97 241.14,105.97 241.14,105.66 
			241.14,105.35 240.84,105.04 240.53,104.73 240.23,104.42 		"/>
		<polygon class="st2" points="254.79,91.72 244.18,81.2 252.06,72.84 254.18,75.01 249.03,80.58 250.85,82.44 255.7,77.18 
			257.82,79.34 252.97,84.61 255.4,86.77 260.86,80.89 262.98,83.05 		"/>
		<path class="st2" d="M273.3,63.86l2.74-1.24v-0.3h0.3l0.3-0.31l0.31-0.31l0.3-0.3v-0.31v-0.3v-0.31v-0.31l-0.3-0.32v-0.3h-0.31
			v-0.31h-0.3l-0.3-0.3h-0.31h-0.3l-0.31,0.3h-0.3h-0.3v0.31l-2.73,1.24L273.3,63.86z M273.9,73.46l-6.98-13.63l6.37-3.09l0.61-0.63
			h0.61l0.6-0.3l0.61-0.31h0.31h0.6h0.61h0.3h0.31l0.6,0.31h0.3l0.31,0.3l0.3,0.31l0.3,0.31l0.31,0.31l0.3,0.62v0.31l0.3,0.31v0.3
			v0.31v0.3v0.31v0.3v0.32v0.31v0.31v0.3l-0.3,0.31l-0.3,0.3v0.31h0.3h0.3h0.3l0.3,0.31h0.3l0.31,0.3l0.3,0.31l0.31,0.3l0.31,0.31
			v0.31l0.3,0.31v0.31h0.31v0.3h0.3v0.31l0.3,0.62v0.31h0.3l0.31,0.31v0.31h0.3h0.3v0.31l0.3,0.3l-3.64,1.86l-0.31-0.31l-0.3-0.3
			V68.2l-0.3-0.31v-0.31l-0.3-0.31l-0.3-0.3l-0.3-0.31v-0.31l-0.31-0.31v-0.31l-0.3-0.31h-0.3V65.1h-0.31h-0.3h-0.3h-0.3h-0.31h-0.3
			l-0.3,0.31l-2.13,1.23l2.43,4.96L273.9,73.46z"/>
		<polygon class="st2" points="301.81,61.07 299.69,49.31 295.44,50.24 294.84,47.15 306.97,44.67 307.58,47.76 303.33,48.38 
			305.76,60.46 		"/>
		<polygon class="st2" points="323.96,58.91 324.26,43.74 327.9,43.74 327.9,58.91 		"/>
		<polygon class="st2" points="342.76,61.39 347.32,46.83 357.63,50.24 356.72,53.02 350.05,50.86 349.14,53.95 354.9,55.82 
			353.99,58.91 348.23,57.05 346.41,62.32 		"/>
		<polygon class="st2" points="366.13,70.99 373.71,57.98 377.04,59.83 369.16,72.84 		"/>
		<polygon class="st2" points="381.29,82.44 391.61,71.6 400.1,79.34 397.98,81.82 392.52,76.25 390.7,78.41 395.55,83.05 
			393.43,85.54 388.57,80.58 386.14,82.75 391.91,88.32 389.78,90.49 		"/>
		<path class="st2" d="M406.47,109.99l0.91,1.86v0.62l0.3,0.31l0.31,0.31h0.31v0.31l0.3,0.3h0.3h0.31l0.6,0.31h0.32h0.3l0.3-0.31
			h0.62h0.3l0.61-0.3l0.31-0.31l0.6-0.31h0.3l0.62-0.31l0.3-0.31l0.31-0.3l0.3-0.31v-0.31l0.3-0.31v-0.31l0.31-0.31v-0.31v-0.31
			l-0.31-0.3v-0.63v-0.3l-0.3-0.31l-0.91-1.86L406.47,109.99z M401.92,107.83l13.34-6.5l2.73,5.89l0.3,0.62l0.31,0.62l0.3,0.93v0.62
			v0.62v0.62l-0.3,0.63v0.62l-0.31,0.62l-0.3,0.62l-0.6,0.62l-0.31,0.63l-0.6,0.3l-0.6,0.62l-0.61,0.31l-0.91,0.62l-0.91,0.31
			l-0.59,0.31l-0.91,0.31h-0.61h-0.91h-0.61h-0.6l-0.61-0.31h-0.6l-0.6-0.31l-0.61-0.62l-0.6-0.31l-0.31-0.62l-0.61-0.61l-0.3-0.93
			l-0.6-0.62L401.92,107.83z"/>
		<polygon class="st2" points="235.98,175.01 237.5,178.72 226.88,187.39 240.53,186.15 242.05,189.86 227.19,196.06 225.97,193.89 
			238.41,188.32 224.46,189.86 223.54,187.7 234.16,178.72 222.03,183.99 221.12,181.51 		"/>
		<path class="st2" d="M242.96,196.99l-7.28,1.54l2.73,4.34L242.96,196.99z M244.18,194.21l1.82,2.48l-10.62,13.62l-1.22-2.48
			l2.73-3.4l-3.34-5.26l-4.25,0.92l-1.51-2.48L244.18,194.21z"/>
		<polygon class="st2" points="248.12,201.33 249.94,203.49 245.99,217.42 255.1,209.06 256.61,210.92 244.78,222.06 242.96,219.9 
			246.9,205.97 237.81,214.01 236.29,212.16 		"/>
		<path class="st2" d="M260.25,218.97l-6.68,3.41l3.64,3.41L260.25,218.97z M261.16,215.87l2.13,2.16l-6.98,15.79l-2.12-1.85
			l1.81-4.02l-4.55-4.64l-3.64,2.16l-2.12-2.16L261.16,215.87z"/>
		<polygon class="st2" points="275.42,233.21 273.3,231.66 273.6,231.36 273.6,231.04 273.6,230.73 273.6,230.42 273.6,230.11 
			273.6,229.81 273.6,229.18 273.6,228.88 273.3,228.56 273.3,228.25 272.99,227.95 272.69,227.95 272.69,227.63 272.38,227.33 
			272.08,227.02 271.78,226.71 271.17,226.4 270.56,226.09 270.26,226.09 269.66,225.78 269.05,225.78 268.75,225.78 268.14,225.78 
			267.84,226.09 267.23,226.09 266.63,226.4 266.32,226.71 265.71,227.02 265.41,227.33 264.8,227.95 264.5,228.56 264.19,228.88 
			263.59,229.49 263.28,230.11 262.98,230.73 262.98,231.36 262.68,231.97 262.68,232.59 262.68,232.9 262.68,233.52 262.68,234.14 
			262.98,234.76 262.98,235.07 263.28,235.69 263.59,236 263.89,236.3 264.5,236.62 264.8,237.23 265.11,237.23 265.71,237.55 
			266.02,237.85 266.32,237.85 266.93,237.85 267.23,237.85 267.84,237.85 268.14,237.85 268.44,237.85 269.05,237.55 
			269.35,237.55 269.66,237.23 269.96,236.93 270.56,236.62 270.87,236.3 271.17,236 267.23,233.52 268.75,231.36 274.51,235.37 
			269.35,242.81 268.14,241.88 268.75,239.71 268.44,240.02 268.14,240.02 267.84,240.02 267.23,240.02 266.93,240.02 
			266.63,240.02 266.32,240.02 266.02,240.02 265.71,240.02 265.11,240.02 264.8,239.71 264.5,239.71 264.19,239.71 263.89,239.4 
			263.59,239.1 263.28,239.1 262.38,238.47 262.07,237.85 261.46,237.23 261.16,236.62 260.55,236 260.55,235.37 260.25,234.76 
			259.95,233.83 259.95,233.21 259.95,232.28 259.95,231.66 260.25,230.73 260.55,229.81 260.86,229.18 261.16,228.25 
			261.77,227.63 262.38,226.71 262.98,226.09 263.59,225.47 264.19,224.85 264.8,224.54 265.41,223.92 266.02,223.61 266.93,223.61 
			267.53,223.31 268.44,223.31 269.05,223.31 269.96,223.31 270.56,223.61 271.48,223.92 272.08,224.24 272.69,224.85 273.3,225.16 
			273.9,225.47 274.51,226.09 274.81,226.71 275.12,227.02 275.42,227.63 275.72,227.95 276.03,228.56 276.03,229.18 276.33,229.81 
			276.33,230.42 276.33,231.04 276.03,231.36 276.03,231.97 275.72,232.59 		"/>
		<polygon class="st2" points="279.36,229.18 289.67,234.14 288.77,236.3 280.88,232.59 279.06,236.3 286.35,240.02 285.43,241.88 
			278.15,238.47 276.03,242.81 284.22,246.83 283.31,249.31 272.69,244.04 		"/>
		<polygon class="st2" points="289.68,234.45 293.32,235.37 293.93,249 300.9,237.23 304.54,238.47 300.6,254.26 298.17,253.64 
			301.51,240.64 294.23,252.71 291.8,251.78 291.2,237.85 287.85,250.86 285.43,250.23 		"/>
		<polygon class="st2" points="306.06,238.78 317.58,240.02 317.29,242.5 308.48,241.26 307.89,245.59 316.07,246.52 315.76,249 
			307.58,248.07 306.97,253.02 316.07,253.95 315.76,256.43 303.94,254.88 		"/>
		<polygon class="st2" points="318.2,240.02 320.92,240.02 328.51,252.09 328.51,239.71 330.93,239.71 331.24,256.12 328.51,256.12 
			320.62,244.04 320.92,256.43 318.49,256.43 		"/>
		<polygon class="st2" points="331.54,239.4 343.97,237.23 344.28,239.71 339.43,240.64 341.86,254.26 339.12,254.88 336.7,240.95 
			331.84,241.88 		"/>
		<polygon class="st2" points="366.43,233.52 364,234.76 363.69,234.45 363.69,234.14 363.4,233.83 363.09,233.83 363.09,233.52 
			362.78,233.21 362.49,233.21 362.19,233.21 361.87,232.9 361.57,232.9 361.27,232.9 360.96,232.9 360.66,233.21 360.36,233.21 
			359.75,233.21 359.45,233.52 359.15,233.52 358.84,233.83 358.54,234.14 358.24,234.45 357.94,234.76 357.94,235.07 
			357.63,235.07 357.63,235.37 357.63,235.69 357.63,236 357.63,236.3 357.63,236.62 357.94,236.92 357.94,237.23 358.24,237.55 
			358.54,237.55 358.84,237.85 359.15,237.85 359.45,237.85 359.75,237.85 360.36,237.85 360.66,237.85 361.27,237.85 
			361.57,237.85 362.19,237.55 363.09,237.55 364,237.55 364.6,237.23 365.22,237.23 365.82,237.23 366.43,237.23 366.73,237.23 
			367.34,237.55 367.64,237.55 367.95,237.85 368.25,238.17 368.55,238.47 368.86,238.78 369.16,239.1 369.16,239.4 369.46,239.71 
			369.77,240.33 369.77,240.95 369.77,241.26 370.07,241.88 369.77,242.5 369.77,242.81 369.77,243.43 369.46,243.74 369.16,244.36 
			368.86,244.97 368.55,245.29 367.95,245.59 367.64,246.22 367.04,246.52 366.43,246.83 365.82,247.14 365.22,247.45 364.6,247.45 
			363.69,247.76 363.09,247.76 362.49,247.76 362.19,247.76 361.57,247.76 360.96,247.76 360.36,247.45 360.05,247.14 
			359.45,246.83 359.15,246.52 358.54,246.22 358.24,245.59 357.94,245.29 357.63,244.67 360.05,243.43 360.36,243.74 
			360.36,244.04 360.66,244.36 360.96,244.67 361.27,244.67 361.57,244.97 361.87,244.97 362.19,245.29 362.49,245.29 
			362.78,245.29 363.09,245.29 363.4,245.29 364,245.29 364.3,245.29 364.6,244.97 365.22,244.67 365.52,244.67 365.52,244.36 
			365.82,244.36 366.13,244.04 366.43,244.04 366.43,243.74 366.73,243.43 367.04,243.12 367.04,242.81 367.04,242.5 367.04,242.19 
			367.04,241.88 367.04,241.57 367.04,241.26 366.73,240.95 366.43,240.64 366.13,240.64 366.13,240.33 365.82,240.33 
			365.52,240.33 365.52,240.01 365.22,240.01 364.91,240.01 364.6,240.01 364.3,240.01 364,240.01 363.4,240.01 363.09,240.01 
			362.49,240.33 362.19,240.33 361.87,240.33 361.27,240.64 360.36,240.64 359.75,240.64 359.45,240.64 358.84,240.64 
			358.24,240.64 357.94,240.33 357.63,240.33 357.33,240.01 356.72,240.01 356.42,239.71 356.11,239.4 356.11,239.1 355.81,238.78 
			355.5,238.47 355.2,238.17 355.2,237.55 354.9,236.92 354.9,236.62 354.9,236 354.9,235.69 355.2,235.07 355.2,234.76 
			355.5,234.14 355.81,233.83 356.11,233.21 356.42,232.9 356.72,232.59 357.33,232.28 357.63,231.97 358.24,231.66 358.84,231.36 
			359.45,231.04 360.05,230.73 360.66,230.73 361.27,230.73 361.87,230.43 362.19,230.73 362.78,230.73 363.4,230.73 363.69,231.04 
			364.3,231.36 364.6,231.66 364.91,231.97 365.52,232.28 365.82,232.59 366.13,233.21 		"/>
		<polygon class="st2" points="363.4,229.81 366.13,227.95 373.4,232.28 372.8,223.92 375.53,222.06 375.83,233.52 379.17,239.1 
			377.04,240.64 373.71,235.07 		"/>
		<polygon class="st2" points="387.36,218.35 385.23,219.9 384.93,219.9 384.93,219.59 384.63,219.28 384.32,219.28 384.02,218.96 
			383.72,218.96 383.41,218.96 383.12,218.96 382.82,218.96 382.5,218.96 382.2,218.96 381.9,218.96 381.6,219.28 381.29,219.28 
			380.99,219.59 380.68,219.9 380.38,219.9 380.08,220.21 380.08,220.52 379.77,220.52 379.77,220.83 379.47,221.14 379.47,221.45 
			379.17,221.76 379.17,222.06 379.17,222.38 379.17,222.69 379.47,222.69 379.47,222.99 379.47,223.31 379.77,223.31 
			379.77,223.61 380.08,223.61 380.08,223.92 380.38,223.92 380.68,223.92 380.99,224.24 381.29,224.24 381.6,224.24 381.9,223.92 
			382.2,223.92 382.82,223.92 383.12,223.61 383.72,223.31 384.32,223.31 384.93,222.99 385.85,222.69 386.45,222.38 387.05,222.06 
			387.66,222.06 388.27,222.06 388.57,222.06 389.17,222.06 389.49,222.06 389.78,222.06 390.08,222.38 390.4,222.38 391,222.69 
			391.3,222.99 391.61,223.31 391.61,223.61 392.21,224.24 392.21,224.54 392.52,225.16 392.52,225.47 392.82,226.09 392.82,226.71 
			392.82,227.02 392.52,227.63 392.52,228.25 392.21,228.88 391.91,229.19 391.61,229.81 391.3,230.11 390.7,230.73 390.4,231.04 
			389.78,231.66 389.17,231.97 388.57,232.28 387.97,232.59 387.36,232.9 386.75,233.21 386.45,233.21 385.85,233.21 385.23,233.21 
			384.63,233.21 384.02,233.21 383.72,232.9 383.12,232.59 382.82,232.28 382.2,231.97 381.6,231.36 381.29,231.04 383.41,229.49 
			383.72,229.81 384.02,229.81 384.02,230.11 384.32,230.43 384.63,230.43 384.93,230.43 385.54,230.73 385.85,230.73 
			386.14,230.73 386.45,230.73 386.75,230.43 387.05,230.43 387.66,230.11 387.97,230.11 388.27,229.81 388.57,229.49 
			388.87,229.49 389.17,229.19 389.17,228.88 389.49,228.56 389.78,228.56 389.78,228.25 390.08,227.95 390.08,227.63 
			390.08,227.33 390.08,227.02 390.08,226.71 390.08,226.4 390.08,226.09 389.78,226.09 389.78,225.78 389.49,225.78 389.49,225.47 
			389.17,225.47 389.17,225.16 388.87,225.16 388.57,225.16 388.57,224.85 388.27,224.85 387.97,224.85 387.66,224.85 
			387.36,224.85 387.05,224.85 386.75,225.16 386.45,225.16 386.14,225.47 385.54,225.47 385.23,225.78 384.93,225.78 
			384.63,225.78 384.63,226.09 384.32,226.09 383.72,226.4 383.12,226.4 382.5,226.71 382.2,226.71 381.6,227.02 380.99,227.02 
			380.68,227.02 380.38,227.02 379.77,226.71 379.47,226.71 379.17,226.71 378.86,226.4 378.56,226.09 378.26,225.78 377.95,225.47 
			377.65,225.16 377.35,224.85 377.04,224.24 376.74,223.92 376.74,223.31 376.74,222.99 376.74,222.38 376.74,222.06 
			377.04,221.45 377.04,221.14 377.35,220.52 377.65,219.9 377.95,219.59 378.26,218.96 378.56,218.66 379.17,218.35 379.77,217.73 
			380.08,217.42 380.68,217.11 381.29,216.8 381.6,216.49 382.2,216.49 382.82,216.49 383.41,216.49 383.72,216.49 384.32,216.49 
			384.93,216.49 385.23,216.8 385.85,216.8 386.14,217.11 386.45,217.42 387.05,218.03 		"/>
		<polygon class="st2" points="383.41,214.64 392.21,205.35 394.04,207.2 390.4,210.61 400.4,220.52 398.59,222.38 388.58,212.78 
			385.23,216.18 		"/>
		<polygon class="st2" points="392.52,205.35 398.89,195.75 401.01,196.99 395.85,204.42 399.19,206.9 404.04,200.08 405.86,201.33 
			401.32,208.13 405.25,210.92 410.42,203.18 412.54,204.42 405.86,214.64 		"/>
		<polygon class="st2" points="399.8,193.89 401.62,190.49 414.67,193.58 405.56,183.68 407.38,180.27 421.34,188.32 420.12,190.8 
			408.59,183.99 418.3,194.21 416.79,196.37 403.44,193.27 414.97,200.08 413.75,202.25 		"/>
		<rect x="208.08" y="147.76" class="st1" width="34.28" height="2.79"/>
		<rect x="402.22" y="147.76" class="st1" width="34.28" height="2.79"/>
	</g>
	<g>
		<g>
			<path class="st3" d="M32.87,266.67c-15.33,0-27.8-12.47-27.8-27.79V48.9c0-15.33,12.47-27.81,27.8-27.81h111.4
				c15.33,0,27.8,12.47,27.8,27.81v189.98c0,15.33-12.47,27.79-27.8,27.79H32.87z M12.05,238.88c0,11.48,9.34,20.82,20.82,20.82
				h111.4c11.48,0,20.82-9.34,20.82-20.82v-65.91c-23.03,13.81-49.39,21.1-76.42,21.1c-27.1,0-53.53-7.33-76.62-21.22V238.88z"/>
			<path class="st0" d="M144.27,22.59c14.53,0,26.3,11.78,26.3,26.31v189.98c0,14.53-11.77,26.3-26.3,26.3H32.87
				c-14.53,0-26.3-11.77-26.3-26.3V48.9c0-14.53,11.77-26.31,26.3-26.31H144.27 M32.87,261.2h111.4c12.3,0,22.32-10.01,22.32-22.32
				v-68.59c-22.61,14.13-49.32,22.28-77.92,22.28c-28.69,0-55.47-8.2-78.12-22.4v68.71C10.55,251.19,20.56,261.2,32.87,261.2
				 M144.27,19.59H32.87c-16.15,0-29.3,13.15-29.3,29.31v189.98c0,16.15,13.14,29.3,29.3,29.3h111.4c16.15,0,29.3-13.14,29.3-29.3
				V48.9C173.56,32.74,160.42,19.59,144.27,19.59L144.27,19.59z M32.87,258.2c-10.65,0-19.32-8.67-19.32-19.32v-63.4
				c22.77,13.16,48.63,20.09,75.12,20.09c26.42,0,52.2-6.89,74.92-19.98v63.29c0,10.65-8.67,19.32-19.32,19.32H32.87L32.87,258.2z"
				/>
		</g>
		<path class="st0" d="M166.59,170.29v68.59c0,12.31-10.02,22.32-22.32,22.32H32.87c-12.31,0-22.32-10.01-22.32-22.32v-68.71
			c22.65,14.19,49.42,22.4,78.12,22.4C117.27,192.57,143.98,184.42,166.59,170.29z"/>
		<g>
			<g>
				<g>
					<g>
						<path class="st0" d="M88.58,96.3c-6.98,0-12.66-5.69-12.65-12.67c0.01-6.98,5.69-12.66,12.67-12.65
							c6.98,0,12.66,5.69,12.65,12.67C101.25,90.63,95.57,96.31,88.58,96.3 M88.6,75.67c-4.4,0-7.98,3.57-7.98,7.97
							c0,4.39,3.57,7.97,7.97,7.98c4.4,0,7.97-3.57,7.98-7.97C96.57,79.25,92.99,75.67,88.6,75.67"/>
						<path class="st0" d="M65.37,103.58c-4.61-5.37-7.4-12.35-7.39-19.97c0-6.07,1.79-11.72,4.84-16.49l-3.75-2.83
							c-3.65,5.56-5.78,12.19-5.78,19.31c-0.01,8.91,3.31,17.06,8.76,23.29L65.37,103.58z"/>
						<path class="st0" d="M62.05,60.38l3.32,3.32c1.02-1.19,2.13-2.3,3.31-3.32l-3.32-3.32C64.19,58.09,63.08,59.2,62.05,60.38"/>
						<path class="st0" d="M88.69,48.26c-7.16,0-13.83,2.14-19.41,5.81l2.82,3.75c4.79-3.09,10.48-4.88,16.58-4.88
							c8,0.01,15.45,3.03,21.1,8.42l4.1-2.53C107.28,52.08,98.33,48.27,88.69,48.26"/>
						<path class="st0" d="M102.78,96.77c-3.53,3.79-8.55,6.16-14.13,6.16c-10.64-0.01-19.28-8.67-19.28-19.3
							c0.01-10.64,8.67-19.28,19.3-19.28c3.94,0,7.71,1.21,10.87,3.37l4.28-2.65c-4.22-3.45-9.54-5.4-15.14-5.41
							c-13.22-0.01-23.99,10.74-24,23.96c-0.01,13.22,10.74,23.99,23.96,23.99c7.14,0.01,13.56-3.13,17.96-8.09L102.78,96.77z"/>
						<path class="st0" d="M105.73,109.13c-4.89,3.29-10.77,5.2-17.09,5.2c-7.62-0.01-14.59-2.81-19.96-7.43l-3.32,3.32
							c6.22,5.46,14.37,8.79,23.28,8.79c7.42,0.01,14.31-2.29,20-6.2L105.73,109.13z"/>
						<path class="st0" d="M117.05,62.39l-13.71,8.48c0,0,4.62,5.36,4.62,12.78c0,3.38-0.88,6.56-2.42,9.32l3.82,2.76
							c2.08-3.55,3.28-7.67,3.28-12.08c0-3.96-0.97-7.82-2.81-11.29l5.72-3.54c2.5,4.53,3.8,9.61,3.8,14.83
							c-0.01,8.92-3.84,16.96-9.94,22.56l2.91,3.69c7.18-6.47,11.72-15.84,11.72-26.25C124.04,71.07,117.05,62.39,117.05,62.39"/>
					</g>
					<g>
						<path class="st0" d="M63.44,136.58c-5.47,0-9.93,4.43-9.93,9.89c0,5.46,4.45,9.9,9.92,9.9c5.48,0,9.93-4.43,9.94-9.89
							C73.37,141.03,68.92,136.58,63.44,136.58 M63.43,152.31c-3.23,0-5.85-2.62-5.85-5.84c0-3.22,2.63-5.83,5.86-5.83
							c3.23,0,5.85,2.62,5.85,5.84C69.29,149.7,66.66,152.31,63.43,152.31"/>
						<path class="st0" d="M30.22,155.75l-4.15,0l0.01-16.91l4.15,0L30.22,155.75z M28.15,136.68c-1.41,0-2.52-1.1-2.52-2.51
							c0-1.41,1.11-2.51,2.52-2.51c1.41,0,2.52,1.1,2.52,2.51C30.67,135.58,29.56,136.68,28.15,136.68"/>
						<path class="st0" d="M86.63,136.53c-5.47,0-9.93,4.43-9.94,9.89c0,0,0,9.51,0,9.51l4.38,0l0.01-9.81
							c0-3.05,2.49-5.52,5.55-5.52c3.02,0,5.48,2.42,5.54,5.42l-0.01,9.93l4.38,0l0.01-9.51C96.55,140.98,92.1,136.54,86.63,136.53"
							/>
						<path class="st0" d="M109.88,152.64L109.88,152.64c0,0-0.65,0.05-0.9,0.05c-1.79,0-2.63-0.45-2.63-2.97l0.01-9.68l3.7,0
							l0-3.23l-3.69,0l0-3.79l-4.38,0l0,3.79l-2.52,0l0,3.21l2.52,0.01l-0.01,9.09c0,1.32,0.1,3.24,0.93,4.76
							c0.92,1.67,2.54,2.52,4.83,2.52c1.1,0,2.14-0.21,2.14-0.21L109.88,152.64z"/>
						<path class="st0" d="M44.04,156.41c-5.5,0-9.97-4.47-9.97-9.95c0-5.48,4.48-9.94,9.99-9.94c4.65,0,7.25,3.12,7.25,3.12
							l-2.65,3.28c0,0-1.64-2.24-4.6-2.24c-3.2,0-5.81,2.59-5.81,5.78s2.6,5.79,5.8,5.79c3.04,0,4.64-2.28,4.64-2.28l2.67,3.27
							C51.35,153.24,48.7,156.41,44.04,156.41"/>
						<path class="st0" d="M144.39,156.41c-5.5,0-9.98-4.47-9.97-9.95c0-5.48,4.48-9.94,9.99-9.94c4.65,0,7.25,3.12,7.25,3.12
							l-2.65,3.28c0,0-1.64-2.24-4.6-2.24c-3.2,0-5.81,2.59-5.81,5.78c0,3.19,2.6,5.79,5.8,5.79c3.04,0,4.64-2.28,4.64-2.28
							l2.67,3.27C151.7,153.24,149.05,156.41,144.39,156.41"/>
						<path class="st0" d="M122.07,136.43c-5.82,0-9.32,4.82-9.32,10.05c0,5.84,4.07,9.92,9.91,9.92c5.86,0,8.12-4.39,8.12-4.39
							l-2.99-2.24c0,0-1.52,2.7-5.05,2.7c-3.11,0-5.49-1.94-5.68-4.86l14.14,0.01c0,0,0.07-0.92,0.07-1.24
							C131.27,142.12,129.14,136.43,122.07,136.43 M117.22,144.4c0.35-2.51,2.4-4.18,4.88-4.18c2.6,0,4.5,1.64,4.74,4.19
							L117.22,144.4z"/>
					</g>
				</g>
			</g>
		</g>
	</g>
	<g>
		<path class="st3" d="M31.86,232.73v-18.47h3.5v18.47H31.86z"/>
		<path class="st3" d="M38.95,231.51l0.79-2.85c0.67,0.34,1.43,0.65,2.28,0.91c0.85,0.26,1.63,0.39,2.34,0.39
			c1.09,0,1.91-0.17,2.47-0.52c0.56-0.34,0.84-0.84,0.84-1.49c0-0.45-0.22-0.87-0.67-1.24c-0.44-0.37-1.13-0.81-2.05-1.32
			l-0.81-0.49c-1.21-0.72-2.18-1.35-2.89-1.87c-0.72-0.53-1.33-1.15-1.85-1.86c-0.52-0.71-0.77-1.52-0.77-2.4
			c0-0.94,0.25-1.79,0.76-2.54c0.51-0.75,1.24-1.34,2.19-1.77c0.95-0.43,2.09-0.64,3.41-0.64c1.56,0,3.3,0.46,5.22,1.39l-1.17,2.83
			c-0.74-0.36-1.42-0.64-2.02-0.84c-0.61-0.2-1.26-0.3-1.97-0.3c-0.81,0-1.48,0.16-2,0.48c-0.52,0.32-0.77,0.78-0.77,1.4
			c0,0.53,0.2,0.96,0.61,1.32c0.41,0.35,1.07,0.8,2,1.35l0.87,0.49l0.79,0.46c1.07,0.62,1.92,1.15,2.55,1.62
			c0.63,0.46,1.16,1.02,1.59,1.68c0.43,0.66,0.64,1.44,0.64,2.32c0,1-0.27,1.87-0.8,2.64s-1.32,1.36-2.36,1.79
			c-1.04,0.43-2.29,0.65-3.74,0.65c-0.76,0-1.71-0.17-2.84-0.5C40.44,232.25,39.56,231.89,38.95,231.51z"/>
		<path class="st3" d="M61.99,213.82c1.87,0,3.49,0.42,4.86,1.26c1.38,0.84,2.42,1.99,3.14,3.44c0.72,1.45,1.07,3.07,1.07,4.86
			c0,1.88-0.38,3.55-1.14,5.01c-0.76,1.46-1.83,2.6-3.19,3.42c-1.37,0.82-2.95,1.25-4.74,1.29c-1.87,0-3.48-0.42-4.85-1.26
			c-1.37-0.84-2.41-1.98-3.12-3.42c-0.72-1.44-1.07-3.06-1.07-4.85c0-1.87,0.38-3.53,1.13-5c0.75-1.47,1.82-2.62,3.19-3.45
			C58.64,214.29,60.21,213.86,61.99,213.82z M56.61,223.55c0,1.29,0.22,2.43,0.65,3.44c0.43,1.01,1.05,1.78,1.86,2.34
			c0.81,0.55,1.75,0.83,2.84,0.83c1.01,0,1.93-0.25,2.76-0.75c0.82-0.5,1.48-1.26,1.96-2.28c0.48-1.02,0.72-2.27,0.72-3.74
			c0-1.27-0.22-2.4-0.65-3.4c-0.43-1-1.06-1.77-1.87-2.34c-0.82-0.56-1.76-0.84-2.83-0.84c-0.98,0-1.88,0.28-2.7,0.83
			c-0.82,0.55-1.49,1.34-1.98,2.36C56.86,221.03,56.61,222.21,56.61,223.55z"/>
		<path class="st3" d="M82.82,232.73v-11.46l-3.1,1.2l-1.33-2.64l5.6-2.47h2.36v15.38H82.82z"/>
		<path class="st3" d="M102.44,231.13h-2.5v3.48h-3.56v-3.48h-7.53l-0.46-2.91l8.91-11h2.64v11h2.85L102.44,231.13z M92.2,228.22
			h4.18v-5.35L92.2,228.22z"/>
		<path class="st3" d="M104.01,224.99c0-1.52,0.33-2.89,0.98-4.1c0.65-1.21,1.55-2.16,2.7-2.85c1.15-0.69,2.45-1.03,3.9-1.03
			c1.43,0,2.72,0.34,3.87,1.02c1.15,0.68,2.05,1.63,2.69,2.84c0.64,1.21,0.97,2.57,0.97,4.08c0,1.56-0.33,2.96-0.98,4.2
			c-0.65,1.24-1.55,2.21-2.7,2.91c-1.15,0.7-2.44,1.05-3.87,1.05c-1.43,0-2.72-0.35-3.87-1.05c-1.15-0.7-2.05-1.66-2.7-2.89
			C104.34,227.91,104.01,226.53,104.01,224.99z M107.25,224.91c0,0.98,0.18,1.86,0.56,2.65c0.37,0.79,0.89,1.4,1.55,1.85
			c0.66,0.44,1.41,0.67,2.24,0.67c0.83,0,1.58-0.22,2.24-0.65c0.66-0.43,1.18-1.03,1.55-1.79c0.37-0.76,0.56-1.62,0.56-2.58
			s-0.19-1.82-0.57-2.59c-0.38-0.77-0.9-1.37-1.56-1.81c-0.66-0.43-1.41-0.65-2.24-0.65c-0.82,0-1.55,0.21-2.22,0.64
			c-0.66,0.43-1.18,1.01-1.55,1.75C107.43,223.12,107.25,223.97,107.25,224.91z"/>
		<path class="st3" d="M120.48,224.99c0-1.52,0.33-2.89,0.98-4.1c0.65-1.21,1.55-2.16,2.7-2.85c1.15-0.69,2.45-1.03,3.9-1.03
			c1.43,0,2.72,0.34,3.87,1.02s2.05,1.63,2.69,2.84c0.64,1.21,0.96,2.57,0.96,4.08c0,1.56-0.33,2.96-0.98,4.2
			c-0.65,1.24-1.55,2.21-2.7,2.91c-1.15,0.7-2.44,1.05-3.87,1.05s-2.72-0.35-3.87-1.05s-2.05-1.66-2.7-2.89
			C120.81,227.91,120.48,226.53,120.48,224.99z M123.71,224.91c0,0.98,0.19,1.86,0.56,2.65c0.37,0.79,0.89,1.4,1.55,1.85
			c0.66,0.44,1.41,0.67,2.24,0.67c0.83,0,1.58-0.22,2.24-0.65c0.66-0.43,1.18-1.03,1.55-1.79c0.37-0.76,0.56-1.62,0.56-2.58
			s-0.19-1.82-0.57-2.59c-0.38-0.77-0.9-1.37-1.56-1.81c-0.66-0.43-1.41-0.65-2.24-0.65c-0.81,0-1.55,0.21-2.21,0.64
			c-0.66,0.43-1.18,1.01-1.55,1.75C123.9,223.12,123.71,223.97,123.71,224.91z"/>
		<path class="st3" d="M140.96,232.73v-11.46l-3.1,1.2l-1.33-2.64l5.6-2.47h2.36v15.38H140.96z"/>
	</g>
</g>
</svg>
