<?xml version="1.0" encoding="utf-8"?>
<!-- Generator: Adobe Illustrator 26.0.3, SVG Export Plug-In . SVG Version: 6.00 Build 0)  -->
<svg version="1.1" id="Capa_1" xmlns="http://www.w3.org/2000/svg" xmlns:xlink="http://www.w3.org/1999/xlink" x="0px" y="0px"
	 viewBox="0 0 438 328" style="enable-background:new 0 0 438 328;" xml:space="preserve">
<style type="text/css">
	.st0{fill-rule:evenodd;clip-rule:evenodd;fill:#FFFFFF;}
	.st1{fill-rule:evenodd;clip-rule:evenodd;fill:#00355B;}
	.st2{fill:#FFFFFF;}
	.st3{fill:#0082CA;}
</style>
<g>
	<g>
		<rect x="249.12" y="120.4" class="st0" width="145" height="5.88"/>
		<rect x="249.12" y="173.65" class="st0" width="145" height="4.33"/>
		<polygon class="st0" points="369.85,146.71 366.52,146.71 366.52,145.17 376.23,134.95 377.14,134.95 377.14,141.76 
			385.33,141.76 385.33,146.71 377.14,146.71 377.14,155.38 377.14,156 377.14,156.62 377.44,156.93 377.44,157.55 377.44,157.86 
			377.75,158.17 377.75,158.48 378.05,158.79 378.35,159.1 378.66,159.41 378.96,159.41 379.57,159.72 379.86,159.72 380.47,159.72 
			380.78,159.72 381.08,159.72 381.39,159.72 381.69,159.72 381.99,159.72 382.3,159.41 382.6,159.41 382.9,159.41 383.2,159.41 
			383.51,159.41 383.81,159.1 384.11,159.1 384.42,159.1 384.72,158.79 385.02,158.79 385.33,158.48 385.33,164.05 385.02,164.05 
			384.42,164.36 384.11,164.36 383.51,164.67 383.2,164.67 382.6,164.67 382.3,164.98 381.69,164.98 381.39,164.98 380.78,164.98 
			380.47,165.29 379.86,165.29 379.57,165.29 378.96,165.29 378.66,165.29 378.35,165.29 377.14,165.29 376.23,164.98 
			375.31,164.98 374.41,164.67 373.5,164.36 372.89,164.05 372.28,163.44 371.67,163.12 371.38,162.5 370.76,161.57 370.46,160.96 
			370.46,160.02 370.16,158.79 369.85,157.86 369.85,156.62 369.85,155.38 		"/>
		<path class="st0" d="M348.02,151.05h9.1v-0.63v-0.62l-0.3-0.3v-0.63l-0.3-0.31l-0.3-0.31l-0.31-0.62l-0.3-0.31l-0.3-0.31h-0.3
			l-0.31-0.31l-0.3-0.3h-0.3h-0.6l-0.3-0.31h-0.31h-0.6l-0.61,0.31h-0.31h-0.3l-0.6,0.3l-0.31,0.31h-0.3l-0.3,0.31l-0.31,0.31
			l-0.3,0.62l-0.3,0.31l-0.3,0.31v0.63l-0.3,0.3v0.62V151.05z M364.09,162.19l-0.6,0.62l-0.6,0.31l-0.61,0.31l-0.6,0.3l-0.61,0.31
			h-0.61l-0.91,0.31l-0.6,0.31h-0.6l-0.6,0.31h-0.91h-0.61l-0.61,0.3h-0.91h-0.6h-0.91h-1.52l-1.21-0.3l-1.52-0.31l-1.21-0.31
			l-1.21-0.31l-0.92-0.62l-0.9-0.62l-1.22-0.93l-0.6-0.62l-0.91-0.93l-0.61-1.24l-0.3-0.93l-0.31-1.23l-0.3-1.23l-0.3-1.24v-1.55
			v-1.23l0.3-1.24l0.3-1.24l0.31-0.93l0.3-1.24l0.61-0.93l0.91-0.93l0.6-0.62l0.91-0.93l0.91-0.62l1.22-0.62l0.91-0.31l1.21-0.31
			l1.21-0.3l1.51-0.31h1.22h1.51l1.22,0.31l1.21,0.3l1.22,0.31l0.9,0.62l0.91,0.61l1.22,0.63l0.6,0.92l0.91,0.93l0.61,0.93l0.6,0.93
			l0.31,1.24l0.6,1.24v1.24l0.3,1.55v1.55h-16.69v0.31v0.62V156v0.62l0.3,0.62l0.3,0.31l0.3,0.62l0.3,0.31l0.61,0.62l0.61,0.31
			l0.3,0.31l0.6,0.3l0.61,0.31h0.91l0.61,0.3h0.91h0.61h0.6h0.61h0.61l0.6-0.3h0.61l0.6-0.31h0.31l0.6-0.3h0.61l0.61-0.31l0.6-0.31
			l0.61-0.31l0.6-0.31l0.3-0.31l0.6-0.3l0.6-0.31V162.19z"/>
		<polygon class="st0" points="313.43,143.3 313.43,164.67 306.16,164.67 306.16,130.61 312.52,130.61 328,151.05 328,130.61 
			335.27,130.61 335.27,164.67 329.51,164.67 		"/>
		<rect x="255.79" y="130.61" class="st0" width="9.1" height="34.06"/>
		<polygon class="st0" points="271.27,144.24 272.17,141.76 270.05,140.21 272.48,140.21 273.09,138.36 274,140.21 276.12,140.21 
			274.3,141.76 274.91,144.24 273.09,142.69 		"/>
		<polygon class="st0" points="269.14,152.29 270.05,150.12 267.93,148.57 270.36,148.57 270.96,146.41 271.87,148.57 274,148.57 
			272.17,150.12 273.08,152.29 270.96,151.05 		"/>
		<polygon class="st0" points="270.96,159.72 271.57,157.55 269.75,156 272.17,156 272.78,153.84 273.39,156 275.81,156 274,157.55 
			274.61,159.72 272.78,158.17 		"/>
		<polygon class="st0" points="276.73,165.6 277.33,163.12 275.52,161.57 277.64,161.57 278.55,159.41 279.15,161.57 281.58,161.57 
			279.76,163.12 280.37,165.29 278.55,164.05 		"/>
		<polygon class="st0" points="284.01,168.08 284.92,165.6 283.1,164.05 285.22,164.05 285.83,161.89 286.74,164.05 288.86,164.05 
			287.04,165.6 287.65,168.08 285.83,166.53 		"/>
		<polygon class="st0" points="292.2,165.29 292.8,163.12 290.98,161.57 293.11,161.57 294.02,159.41 294.62,161.57 297.06,161.57 
			295.24,163.12 295.83,165.29 294.02,163.74 		"/>
		<polygon class="st0" points="297.35,159.72 297.97,157.24 296.15,155.7 298.56,155.7 299.18,153.52 299.78,155.7 302.21,155.7 
			300.39,157.24 301,159.72 299.18,158.17 		"/>
		<polygon class="st0" points="299.18,152.29 299.78,150.12 297.97,148.57 300.39,148.57 301,146.41 301.6,148.57 304.03,148.57 
			302.21,150.12 302.82,152.29 301,151.05 		"/>
		<polygon class="st0" points="296.74,143.93 297.35,141.76 295.53,140.21 297.65,140.21 298.57,138.05 299.18,140.21 301.6,140.21 
			299.48,141.76 300.39,143.93 298.57,142.69 		"/>
		<polygon class="st0" points="291.29,138.36 291.9,136.19 290.07,134.64 292.5,134.64 293.11,132.47 294.02,134.64 296.15,134.64 
			294.32,136.19 294.93,138.36 293.11,137.12 		"/>
		<polygon class="st0" points="284.01,136.81 284.61,134.33 282.79,132.78 284.92,132.78 285.83,130.92 286.43,132.78 
			288.86,132.78 287.04,134.33 287.65,136.5 285.83,135.25 		"/>
		<polygon class="st0" points="276.43,138.36 277.03,136.19 275.2,134.64 277.64,134.64 278.24,132.47 278.85,134.64 281.28,134.64 
			279.46,136.19 280.06,138.36 278.24,137.12 		"/>
		<polygon class="st0" points="286.74,158.17 287.65,155.7 285.83,154.15 287.95,154.15 288.86,151.98 289.47,154.15 291.9,154.15 
			290.07,155.7 290.68,158.17 288.86,156.62 		"/>
		<polygon class="st0" points="296.45,172.1 297.35,169.62 295.24,168.08 297.65,168.08 298.27,165.91 299.18,168.08 301.3,168.08 
			299.48,169.62 300.38,171.79 298.27,170.55 		"/>
		<polygon class="st0" points="321.01,33.4 326.78,33.4 332.24,33.72 337.7,34.64 343.16,35.57 348.62,36.81 353.77,38.05 
			358.94,39.9 364.09,41.76 368.95,43.93 373.8,46.41 378.66,49.19 383.2,51.98 387.45,55.07 391.7,58.48 395.94,61.88 399.89,65.6 
			403.53,69.32 407.17,73.34 410.51,77.36 413.84,81.7 416.88,86.34 419.6,90.99 422.33,95.63 424.47,100.59 426.89,105.54 
			428.71,110.8 430.53,116.06 432.05,121.33 433.26,126.9 434.17,132.47 434.77,138.04 435.08,143.62 401.1,143.62 400.5,139.9 
			400.2,135.88 399.29,132.16 398.38,128.45 397.46,124.73 395.94,121.02 394.73,117.61 393.21,114.2 391.39,110.8 389.57,107.4 
			387.45,104.3 385.33,101.2 383.2,98.42 380.78,95.32 378.35,92.84 375.62,90.06 372.89,87.58 370.16,85.1 367.12,82.94 
			364.09,80.77 360.76,78.91 357.73,77.06 354.39,75.51 350.74,73.96 347.41,72.72 343.77,71.48 340.13,70.55 336.49,69.62 
			332.54,69.01 328.91,68.39 324.96,68.08 321.01,68.08 317.07,68.08 313.13,68.39 309.49,69.01 305.55,69.62 301.91,70.55 
			298.26,71.48 294.93,72.72 291.29,73.96 287.95,75.51 284.61,77.06 281.28,78.91 278.24,80.77 275.2,82.94 272.18,85.1 
			269.44,87.58 266.71,90.06 263.98,92.54 261.56,95.32 259.13,98.11 256.7,101.2 254.58,103.99 252.76,107.4 250.94,110.49 
			249.12,113.9 247.6,117.3 246.09,120.71 244.87,124.42 243.96,128.14 243.05,131.85 242.14,135.57 241.54,139.28 241.23,143.3 
			206.95,143.3 207.56,137.73 208.16,132.16 209.08,126.59 210.29,121.02 211.81,115.75 213.63,110.49 215.45,105.23 217.57,100.28 
			220,95.32 222.73,90.68 225.46,86.03 228.49,81.7 231.83,77.36 235.17,73.03 238.81,69.01 242.45,65.29 246.39,61.57 
			250.63,58.17 254.88,55.07 259.13,51.98 263.68,49.19 268.23,46.41 273.09,43.93 277.94,41.76 283.1,39.9 288.25,38.05 
			293.41,36.81 298.87,35.57 304.33,34.64 309.79,33.72 315.25,33.4 		"/>
		<polygon class="st0" points="241.23,155.38 241.54,159.41 242.14,163.43 242.75,167.15 243.66,170.86 244.57,174.57 
			245.78,178.29 247.3,181.7 248.82,185.41 250.63,188.81 252.46,191.92 254.28,195.01 256.4,198.11 258.83,201.21 261.26,203.99 
			263.68,206.78 266.41,209.56 269.14,212.04 271.87,214.52 274.91,216.68 277.94,218.85 280.97,220.71 284.31,222.57 
			287.65,224.12 290.98,225.66 294.62,226.9 298.27,228.13 301.91,229.38 305.55,229.99 309.49,230.61 313.13,231.24 317.07,231.54 
			321.01,231.54 324.96,231.54 328.91,231.24 332.54,230.61 336.49,229.99 340.13,229.38 343.77,228.13 347.41,226.9 350.74,225.66 
			354.39,224.12 357.73,222.57 360.76,220.71 364.09,218.85 367.12,216.68 370.16,214.52 372.89,212.04 375.62,209.56 
			378.35,207.08 380.78,204.3 383.2,201.51 385.63,198.41 387.75,195.32 389.57,192.22 391.39,188.81 393.22,185.41 394.73,182.01 
			396.25,178.6 397.46,174.89 398.38,171.17 399.29,167.46 400.2,163.74 400.5,159.72 401.1,156 435.08,156 434.77,161.57 
			434.17,167.15 433.26,172.72 432.05,178.29 430.53,183.56 428.71,188.81 426.88,194.08 424.77,199.04 422.33,203.99 419.6,208.63 
			416.88,213.28 413.84,217.92 410.51,222.26 407.17,226.28 403.53,230.31 399.89,234.33 395.94,237.73 391.71,241.45 
			387.45,244.55 383.2,247.64 378.66,250.43 373.8,253.21 369.25,255.69 364.09,257.86 359.24,259.72 354.08,261.57 348.62,263.12 
			343.46,264.05 338,265.29 332.24,265.91 326.78,266.22 321.01,266.53 315.25,266.22 309.79,265.91 304.03,265.29 298.57,264.05 
			293.41,262.81 287.95,261.57 282.79,259.72 277.94,257.86 272.78,255.69 267.93,253.21 263.38,250.43 258.83,247.64 
			254.58,244.55 250.03,241.14 246.09,237.73 242.14,234.02 238.5,230.31 234.86,226.28 231.52,221.94 228.19,217.61 225.15,213.28 
			222.42,208.63 219.69,203.68 217.27,198.73 215.14,193.77 213.32,188.51 211.5,183.25 210.29,177.98 209.08,172.41 207.86,166.83 
			207.26,161.26 206.95,155.38 		"/>
		<polygon class="st1" points="240.32,101.2 240.93,101.52 241.54,101.82 241.84,102.44 242.14,102.75 242.45,103.37 242.75,103.99 
			242.75,104.3 243.05,104.92 243.05,105.54 243.05,106.16 243.05,106.78 243.05,107.4 243.05,108.01 242.75,108.33 242.45,108.94 
			242.45,109.56 241.84,110.49 241.54,111.11 240.93,111.73 240.32,112.04 239.72,112.66 239.41,112.97 238.5,113.28 237.9,113.28 
			237.29,113.58 236.38,113.58 235.77,113.58 235.17,113.58 234.26,113.58 233.65,113.28 232.74,112.97 232.13,112.66 
			231.22,112.04 230.62,111.73 230.01,111.11 229.4,110.49 228.79,109.87 228.49,109.26 228.19,108.63 227.88,108.01 227.58,107.09 
			227.58,106.47 227.58,105.85 227.58,104.92 227.58,104.3 227.88,103.37 228.19,102.75 228.49,102.13 228.79,101.52 229.1,100.89 
			229.7,100.28 230.01,99.96 230.31,99.66 230.92,99.04 231.22,99.04 231.83,98.73 232.43,98.41 233.04,98.41 233.35,98.41 
			233.95,98.11 234.56,98.41 235.17,98.41 235.77,98.41 236.38,98.73 234.56,102.13 234.26,101.82 233.95,101.82 233.65,101.82 
			233.35,101.82 233.04,101.82 233.04,102.13 232.74,102.13 232.43,102.13 232.43,102.44 232.13,102.44 231.83,102.75 
			231.52,103.06 231.52,103.37 231.22,103.68 231.22,103.99 230.92,104.3 230.92,104.61 230.92,104.92 230.92,105.54 230.92,105.85 
			231.22,106.16 231.22,106.47 231.52,106.78 231.52,107.09 231.83,107.4 232.13,107.71 232.43,108.01 233.04,108.33 233.35,108.63 
			233.65,108.94 234.26,109.26 234.86,109.56 235.17,109.56 235.77,109.87 236.07,109.87 236.38,109.87 236.99,109.87 
			237.29,109.87 237.6,109.87 237.9,109.56 238.2,109.56 238.5,109.26 238.81,108.94 239.11,108.94 239.41,108.63 239.41,108.01 
			239.72,107.71 239.72,107.4 240.02,107.09 240.02,106.78 240.02,106.47 240.02,106.16 240.02,105.85 239.72,105.85 239.72,105.54 
			239.72,105.23 239.41,104.92 239.11,104.61 238.81,104.3 		"/>
		<polygon class="st1" points="253.37,91.6 242.75,81.08 250.63,72.72 252.76,74.89 247.6,80.46 249.42,82.32 254.28,77.06 
			256.4,79.22 251.55,84.49 253.97,86.65 259.44,80.77 261.56,82.93 		"/>
		<path class="st1" d="M271.87,63.74l2.74-1.24v-0.3h0.3l0.3-0.31l0.31-0.31l0.3-0.3v-0.31v-0.3v-0.31v-0.31l-0.3-0.32v-0.3h-0.31
			V59.1h-0.3l-0.3-0.3h-0.31H274l-0.31,0.3h-0.3h-0.3v0.31l-2.73,1.24L271.87,63.74z M272.48,73.34l-6.98-13.63l6.37-3.09l0.61-0.63
			h0.61l0.6-0.3l0.61-0.31h0.31h0.6h0.61h0.3h0.31l0.6,0.31h0.3l0.31,0.3l0.3,0.31l0.3,0.31l0.31,0.31l0.3,0.62v0.31l0.3,0.31v0.3
			v0.31v0.3v0.31v0.3v0.32v0.31v0.31v0.3l-0.3,0.31l-0.3,0.3v0.31h0.3h0.3h0.3l0.3,0.31h0.3l0.31,0.3l0.3,0.31l0.31,0.3l0.31,0.31
			v0.31l0.3,0.31v0.31h0.31v0.3h0.3v0.31l0.3,0.62v0.31h0.3l0.31,0.31v0.31h0.3h0.3v0.31l0.3,0.3l-3.64,1.86l-0.31-0.31l-0.3-0.3
			v-0.31l-0.3-0.31v-0.31l-0.3-0.31l-0.3-0.3l-0.3-0.31v-0.31l-0.31-0.31V65.6l-0.3-0.31h-0.3v-0.31h-0.31h-0.3h-0.3h-0.3h-0.31
			h-0.3l-0.3,0.31l-2.13,1.23l2.43,4.96L272.48,73.34z"/>
		<polygon class="st1" points="300.39,60.95 298.26,49.19 294.02,50.12 293.41,47.03 305.55,44.55 306.15,47.64 301.91,48.26 
			304.33,60.34 		"/>
		<polygon class="st1" points="322.53,58.79 322.83,43.62 326.48,43.62 326.48,58.79 		"/>
		<polygon class="st1" points="341.34,61.27 345.89,46.71 356.21,50.12 355.3,52.9 348.62,50.74 347.72,53.83 353.48,55.7 
			352.57,58.79 346.8,56.93 344.98,62.2 		"/>
		<polygon class="st1" points="364.7,70.87 372.28,57.86 375.62,59.71 367.73,72.72 		"/>
		<polygon class="st1" points="379.87,82.32 390.18,71.48 398.68,79.22 396.55,81.7 391.09,76.13 389.27,78.29 394.12,82.93 
			392,85.42 387.15,80.46 384.72,82.63 390.48,88.2 388.36,90.37 		"/>
		<path class="st1" d="M405.05,109.87l0.91,1.86v0.62l0.3,0.31l0.31,0.31h0.31v0.31l0.3,0.3h0.3h0.31l0.6,0.31h0.32h0.3l0.3-0.31
			h0.62h0.3l0.61-0.3l0.31-0.31l0.6-0.31h0.3l0.62-0.31l0.3-0.31l0.31-0.3l0.3-0.31v-0.31l0.3-0.31v-0.31l0.31-0.31v-0.31v-0.31
			l-0.31-0.3v-0.63v-0.3l-0.3-0.31l-0.91-1.86L405.05,109.87z M400.5,107.71l13.34-6.5l2.73,5.89l0.3,0.62l0.31,0.62l0.3,0.93v0.62
			v0.62v0.62l-0.3,0.63v0.62l-0.31,0.62l-0.3,0.62l-0.6,0.62l-0.31,0.63l-0.6,0.3l-0.6,0.62l-0.61,0.31l-0.91,0.62l-0.91,0.31
			l-0.59,0.31l-0.91,0.31h-0.61h-0.91h-0.61h-0.6l-0.61-0.31h-0.6l-0.6-0.31l-0.61-0.62l-0.6-0.31l-0.31-0.62l-0.61-0.61l-0.3-0.93
			l-0.6-0.62L400.5,107.71z"/>
		<polygon class="st1" points="234.56,174.89 236.07,178.6 225.46,187.27 239.11,186.03 240.62,189.74 225.76,195.94 224.55,193.77 
			236.99,188.2 223.03,189.74 222.12,187.58 232.74,178.6 220.6,183.87 219.69,181.39 		"/>
		<path class="st1" d="M241.54,196.87l-7.28,1.54l2.73,4.34L241.54,196.87z M242.75,194.09l1.82,2.48l-10.62,13.62l-1.22-2.48
			l2.73-3.4l-3.34-5.26l-4.25,0.92l-1.51-2.48L242.75,194.09z"/>
		<polygon class="st1" points="246.69,201.21 248.51,203.37 244.57,217.3 253.67,208.94 255.19,210.8 243.35,221.94 241.54,219.78 
			245.48,205.85 236.38,213.89 234.86,212.04 		"/>
		<path class="st1" d="M258.83,218.85l-6.68,3.41l3.64,3.41L258.83,218.85z M259.74,215.75l2.13,2.16l-6.98,15.79l-2.12-1.85
			l1.81-4.02l-4.55-4.64l-3.64,2.16l-2.12-2.16L259.74,215.75z"/>
		<polygon class="st1" points="274,233.09 271.87,231.54 272.17,231.24 272.17,230.92 272.17,230.61 272.17,230.31 272.17,229.99 
			272.17,229.69 272.17,229.06 272.17,228.76 271.87,228.45 271.87,228.13 271.57,227.83 271.27,227.83 271.27,227.52 
			270.96,227.21 270.66,226.9 270.36,226.59 269.75,226.28 269.14,225.97 268.84,225.97 268.23,225.66 267.62,225.66 267.32,225.66 
			266.72,225.66 266.41,225.97 265.8,225.97 265.2,226.28 264.89,226.59 264.29,226.9 263.98,227.21 263.38,227.83 263.08,228.45 
			262.77,228.76 262.17,229.38 261.86,229.99 261.56,230.61 261.56,231.24 261.26,231.85 261.26,232.47 261.26,232.78 261.26,233.4 
			261.26,234.02 261.56,234.64 261.56,234.95 261.86,235.57 262.17,235.88 262.47,236.18 263.08,236.5 263.38,237.12 263.68,237.12 
			264.29,237.43 264.59,237.73 264.89,237.73 265.5,237.73 265.8,237.73 266.41,237.73 266.72,237.73 267.02,237.73 267.62,237.43 
			267.93,237.43 268.23,237.12 268.54,236.81 269.14,236.5 269.45,236.18 269.75,235.88 265.8,233.4 267.32,231.24 273.09,235.26 
			267.93,242.69 266.72,241.76 267.32,239.59 267.02,239.9 266.72,239.9 266.41,239.9 265.8,239.9 265.5,239.9 265.2,239.9 
			264.89,239.9 264.59,239.9 264.29,239.9 263.68,239.9 263.38,239.59 263.08,239.59 262.77,239.59 262.47,239.28 262.17,238.98 
			261.86,238.98 260.95,238.35 260.65,237.73 260.04,237.12 259.74,236.5 259.13,235.88 259.13,235.26 258.83,234.64 258.52,233.71 
			258.52,233.09 258.52,232.16 258.52,231.54 258.83,230.61 259.13,229.69 259.44,229.06 259.74,228.13 260.35,227.52 
			260.95,226.59 261.56,225.97 262.17,225.35 262.77,224.73 263.38,224.42 263.98,223.8 264.59,223.49 265.5,223.49 266.11,223.19 
			267.02,223.19 267.62,223.19 268.54,223.19 269.14,223.49 270.05,223.8 270.66,224.12 271.27,224.73 271.87,225.04 272.48,225.35 
			273.09,225.97 273.39,226.59 273.69,226.9 274,227.52 274.3,227.83 274.61,228.45 274.61,229.06 274.91,229.69 274.91,230.31 
			274.91,230.92 274.61,231.24 274.61,231.85 274.3,232.47 		"/>
		<polygon class="st1" points="277.94,229.06 288.25,234.02 287.34,236.18 279.46,232.47 277.64,236.18 284.92,239.9 284.01,241.76 
			276.73,238.35 274.61,242.69 282.79,246.71 281.88,249.19 271.27,243.92 		"/>
		<polygon class="st1" points="288.25,234.33 291.9,235.25 292.5,248.88 299.48,237.11 303.12,238.35 299.18,254.14 296.74,253.52 
			300.09,240.52 292.8,252.59 290.38,251.66 289.77,237.73 286.43,250.74 284.01,250.11 		"/>
		<polygon class="st1" points="304.64,238.66 316.16,239.9 315.87,242.38 307.05,241.14 306.46,245.47 314.64,246.4 314.34,248.88 
			306.15,247.95 305.55,252.9 314.64,253.83 314.34,256.31 302.51,254.76 		"/>
		<polygon class="st1" points="316.77,239.9 319.5,239.9 327.09,251.97 327.09,239.59 329.51,239.59 329.81,256 327.09,256 
			319.19,243.92 319.5,256.31 317.07,256.31 		"/>
		<polygon class="st1" points="330.12,239.28 342.55,237.11 342.86,239.59 338,240.52 340.43,254.14 337.7,254.76 335.27,240.83 
			330.42,241.76 		"/>
		<polygon class="st1" points="365,233.4 362.58,234.64 362.27,234.33 362.27,234.02 361.97,233.71 361.67,233.71 361.67,233.4 
			361.36,233.09 361.06,233.09 360.76,233.09 360.45,232.79 360.15,232.79 359.85,232.79 359.54,232.79 359.24,233.09 
			358.93,233.09 358.33,233.09 358.03,233.4 357.73,233.4 357.42,233.71 357.12,234.02 356.81,234.33 356.51,234.64 356.51,234.95 
			356.21,234.95 356.21,235.25 356.21,235.57 356.21,235.88 356.21,236.18 356.21,236.5 356.51,236.81 356.51,237.11 356.81,237.43 
			357.12,237.43 357.42,237.73 357.73,237.73 358.03,237.73 358.33,237.73 358.93,237.73 359.24,237.73 359.85,237.73 
			360.15,237.73 360.76,237.43 361.67,237.43 362.58,237.43 363.18,237.11 363.79,237.11 364.4,237.11 365,237.11 365.31,237.11 
			365.91,237.43 366.22,237.43 366.52,237.73 366.82,238.05 367.12,238.35 367.43,238.66 367.73,238.98 367.73,239.28 368.04,239.6 
			368.34,240.21 368.34,240.83 368.34,241.14 368.64,241.76 368.34,242.38 368.34,242.69 368.34,243.31 368.04,243.62 
			367.73,244.24 367.43,244.85 367.12,245.17 366.52,245.47 366.22,246.1 365.61,246.4 365,246.71 364.4,247.02 363.79,247.33 
			363.18,247.33 362.27,247.64 361.67,247.64 361.06,247.64 360.76,247.64 360.15,247.64 359.54,247.64 358.93,247.33 
			358.63,247.02 358.03,246.71 357.73,246.4 357.12,246.1 356.81,245.47 356.51,245.17 356.21,244.55 358.63,243.31 358.93,243.62 
			358.93,243.92 359.24,244.24 359.54,244.55 359.85,244.55 360.15,244.85 360.45,244.85 360.76,245.17 361.06,245.17 
			361.36,245.17 361.67,245.17 361.97,245.17 362.58,245.17 362.88,245.17 363.18,244.85 363.79,244.55 364.09,244.55 
			364.09,244.24 364.4,244.24 364.7,243.92 365,243.92 365,243.62 365.31,243.31 365.61,243 365.61,242.69 365.61,242.38 
			365.61,242.07 365.61,241.76 365.61,241.45 365.61,241.14 365.31,240.83 365,240.52 364.7,240.52 364.7,240.21 364.4,240.21 
			364.09,240.21 364.09,239.9 363.79,239.9 363.49,239.9 363.18,239.9 362.88,239.9 362.58,239.9 361.97,239.9 361.67,239.9 
			361.06,240.21 360.76,240.21 360.45,240.21 359.85,240.52 358.93,240.52 358.33,240.52 358.03,240.52 357.42,240.52 
			356.81,240.52 356.51,240.21 356.21,240.21 355.9,239.9 355.3,239.9 354.99,239.6 354.69,239.28 354.69,238.98 354.39,238.66 
			354.08,238.35 353.78,238.05 353.78,237.43 353.48,236.81 353.48,236.5 353.48,235.88 353.48,235.57 353.78,234.95 353.78,234.64 
			354.08,234.02 354.39,233.71 354.69,233.09 354.99,232.79 355.3,232.47 355.9,232.16 356.21,231.85 356.81,231.54 357.42,231.24 
			358.03,230.92 358.63,230.61 359.24,230.61 359.85,230.61 360.45,230.31 360.76,230.61 361.36,230.61 361.97,230.61 
			362.27,230.92 362.88,231.24 363.18,231.54 363.49,231.85 364.09,232.16 364.4,232.47 364.7,233.09 		"/>
		<polygon class="st1" points="361.97,229.69 364.7,227.83 371.98,232.16 371.38,223.8 374.11,221.94 374.41,233.4 377.75,238.98 
			375.62,240.52 372.28,234.95 		"/>
		<polygon class="st1" points="385.94,218.23 383.81,219.78 383.51,219.78 383.51,219.47 383.2,219.16 382.9,219.16 382.6,218.85 
			382.3,218.85 381.99,218.85 381.69,218.85 381.39,218.85 381.08,218.85 380.78,218.85 380.47,218.85 380.17,219.16 379.86,219.16 
			379.57,219.47 379.26,219.78 378.96,219.78 378.66,220.09 378.66,220.4 378.35,220.4 378.35,220.71 378.05,221.02 378.05,221.33 
			377.75,221.64 377.75,221.94 377.75,222.26 377.75,222.57 378.05,222.57 378.05,222.87 378.05,223.19 378.35,223.19 
			378.35,223.49 378.66,223.49 378.66,223.8 378.96,223.8 379.26,223.8 379.57,224.12 379.86,224.12 380.17,224.12 380.47,223.8 
			380.78,223.8 381.39,223.8 381.69,223.49 382.3,223.19 382.9,223.19 383.51,222.87 384.42,222.57 385.02,222.26 385.63,221.94 
			386.24,221.94 386.85,221.94 387.15,221.94 387.75,221.94 388.06,221.94 388.36,221.94 388.66,222.26 388.97,222.26 
			389.58,222.57 389.87,222.87 390.18,223.19 390.18,223.49 390.79,224.12 390.79,224.42 391.1,225.04 391.1,225.35 391.39,225.97 
			391.39,226.59 391.39,226.9 391.1,227.51 391.1,228.13 390.79,228.76 390.48,229.07 390.18,229.69 389.87,229.99 389.27,230.61 
			388.97,230.92 388.36,231.54 387.75,231.85 387.15,232.16 386.54,232.47 385.94,232.78 385.33,233.09 385.02,233.09 
			384.42,233.09 383.81,233.09 383.2,233.09 382.6,233.09 382.3,232.78 381.69,232.47 381.39,232.16 380.78,231.85 380.17,231.24 
			379.86,230.92 381.99,229.37 382.3,229.69 382.6,229.69 382.6,229.99 382.9,230.31 383.2,230.31 383.51,230.31 384.11,230.61 
			384.42,230.61 384.72,230.61 385.02,230.61 385.33,230.31 385.63,230.31 386.24,229.99 386.54,229.99 386.85,229.69 
			387.15,229.37 387.45,229.37 387.75,229.07 387.75,228.76 388.06,228.44 388.36,228.44 388.36,228.13 388.66,227.83 
			388.66,227.51 388.66,227.21 388.66,226.9 388.66,226.59 388.66,226.28 388.66,225.97 388.36,225.97 388.36,225.66 388.06,225.66 
			388.06,225.35 387.75,225.35 387.75,225.04 387.45,225.04 387.15,225.04 387.15,224.73 386.85,224.73 386.54,224.73 
			386.24,224.73 385.94,224.73 385.63,224.73 385.33,225.04 385.02,225.04 384.72,225.35 384.11,225.35 383.81,225.66 
			383.51,225.66 383.2,225.66 383.2,225.97 382.9,225.97 382.3,226.28 381.69,226.28 381.08,226.59 380.78,226.59 380.17,226.9 
			379.57,226.9 379.26,226.9 378.96,226.9 378.35,226.59 378.05,226.59 377.75,226.59 377.44,226.28 377.14,225.97 376.84,225.66 
			376.53,225.35 376.22,225.04 375.93,224.73 375.62,224.12 375.31,223.8 375.31,223.19 375.31,222.87 375.31,222.26 375.31,221.94 
			375.62,221.33 375.62,221.02 375.93,220.4 376.22,219.78 376.53,219.47 376.84,218.85 377.14,218.54 377.75,218.23 378.35,217.61 
			378.66,217.3 379.26,216.99 379.86,216.68 380.17,216.37 380.78,216.37 381.39,216.37 381.99,216.37 382.3,216.37 382.9,216.37 
			383.51,216.37 383.81,216.68 384.42,216.68 384.72,216.99 385.02,217.3 385.63,217.92 		"/>
		<polygon class="st1" points="381.99,214.52 390.79,205.23 392.62,207.08 388.97,210.49 398.98,220.4 397.16,222.26 387.15,212.66 
			383.81,216.06 		"/>
		<polygon class="st1" points="391.09,205.23 397.46,195.63 399.59,196.87 394.43,204.3 397.77,206.78 402.62,199.96 404.44,201.21 
			399.89,208.01 403.83,210.8 408.99,203.06 411.12,204.3 404.44,214.52 		"/>
		<polygon class="st1" points="398.38,193.77 400.2,190.37 413.24,193.46 404.14,183.56 405.96,180.15 419.92,188.2 418.7,190.68 
			407.17,183.87 416.88,194.09 415.36,196.25 402.01,193.15 413.54,199.96 412.32,202.13 		"/>
		<rect x="206.65" y="147.64" class="st0" width="34.28" height="2.79"/>
		<rect x="400.8" y="147.64" class="st0" width="34.28" height="2.79"/>
	</g>
	<g>
		<path class="st2" d="M3.04,302.94l1.16-2.04c0.2-0.32,0.67-0.27,0.84-0.15c0.1,0.05,1.87,1.35,3.5,1.35c0.99,0,1.7-0.62,1.7-1.48
			c0-1.03-0.86-1.82-2.54-2.49c-2.12-0.84-4.78-2.49-4.78-5.44c0-2.44,1.9-4.9,5.69-4.9c2.56,0,4.53,1.31,5.27,1.85
			c0.3,0.17,0.25,0.62,0.15,0.79l-1.26,1.9c-0.17,0.27-0.62,0.49-0.84,0.32c-0.22-0.12-2.02-1.48-3.52-1.48
			c-0.89,0-1.55,0.59-1.55,1.26c0,0.91,0.74,1.6,2.68,2.39c1.92,0.76,4.98,2.27,4.98,5.62c0,2.54-2.19,5.1-5.81,5.1
			c-3.2,0-4.98-1.33-5.54-1.9C2.92,303.38,2.85,303.29,3.04,302.94z"/>
		<path class="st2" d="M25.17,287.79c2.46,0,4.29,0.76,5.96,2.29c0.22,0.2,0.22,0.49,0.02,0.69l-1.92,1.99
			c-0.17,0.17-0.44,0.17-0.62,0c-0.91-0.81-2.12-1.26-3.33-1.26c-2.78,0-4.83,2.32-4.83,5.07c0,2.73,2.07,5,4.85,5
			c1.16,0,2.41-0.42,3.3-1.18c0.17-0.15,0.49-0.15,0.64,0.02l1.92,2.05c0.17,0.17,0.15,0.49-0.02,0.66
			c-1.67,1.63-3.79,2.39-5.99,2.39c-4.93,0-8.89-3.92-8.89-8.84S20.24,287.79,25.17,287.79z"/>
		<path class="st2" d="M32.39,300.45v-2.24c0-0.27,0.2-0.47,0.47-0.47h5.64c0.27,0,0.47,0.2,0.47,0.47v2.24
			c0,0.25-0.2,0.44-0.47,0.44h-5.64C32.59,300.9,32.39,300.7,32.39,300.45z"/>
		<path class="st2" d="M49.71,287.79c2.46,0,4.29,0.76,5.96,2.29c0.22,0.2,0.22,0.49,0.02,0.69l-1.92,1.99
			c-0.17,0.17-0.44,0.17-0.62,0c-0.91-0.81-2.12-1.26-3.33-1.26c-2.78,0-4.83,2.32-4.83,5.07c0,2.73,2.07,5,4.85,5
			c1.16,0,2.41-0.42,3.3-1.18c0.17-0.15,0.49-0.15,0.64,0.02l1.92,2.05c0.17,0.17,0.15,0.49-0.02,0.66
			c-1.67,1.63-3.79,2.39-5.99,2.39c-4.93,0-8.89-3.92-8.89-8.84S44.78,287.79,49.71,287.79z"/>
		<path class="st2" d="M58.66,288.51c0-0.25,0.2-0.47,0.47-0.47h10.2c0.27,0,0.47,0.22,0.47,0.47v2.68c0,0.25-0.2,0.47-0.47,0.47
			H62.5v3.05h5.62c0.25,0,0.47,0.22,0.47,0.47v2.68c0,0.27-0.22,0.47-0.47,0.47H62.5v3.33h6.82c0.27,0,0.47,0.22,0.47,0.47v2.69
			c0,0.25-0.2,0.47-0.47,0.47h-10.2c-0.27,0-0.47-0.22-0.47-0.47V288.51z"/>
		<path class="st2" d="M73.09,288.51c0-0.25,0.2-0.47,0.47-0.47h7.36c2.96,0,5.37,2.39,5.37,5.32c0,2.27-1.5,4.09-3.64,4.95
			l3.37,6.26c0.17,0.32,0,0.71-0.42,0.71h-3.28c-0.2,0-0.34-0.12-0.39-0.22l-3.28-6.53h-1.7v6.28c0,0.25-0.22,0.47-0.47,0.47h-2.93
			c-0.27,0-0.47-0.22-0.47-0.47V288.51z M80.61,295.4c1.01,0,1.87-0.94,1.87-1.97s-0.86-1.87-1.87-1.87h-3.65v3.84H80.61z"/>
		<path class="st2" d="M102.12,287.99c0.37-0.12,0.64,0.05,0.76,0.39l0.71,1.9c0.1,0.3,0.02,0.57-0.47,0.71
			c-1.16,0.37-4.43,1.5-4.95,4.04c0.64-0.27,1.67-0.49,2.34-0.49c2.32,0,4.9,1.7,4.9,5.34c0,3.1-2.56,5.64-5.64,5.64
			c-3.82,0-5.94-2.86-5.94-6.7C93.84,291.59,100,288.66,102.12,287.99z M99.73,302.13c1.31,0,2.36-1.08,2.36-2.36
			c0-1.31-1.06-2.39-2.36-2.39s-2.36,1.08-2.36,2.39C97.36,301.04,98.42,302.13,99.73,302.13z"/>
		<path class="st2" d="M115.37,287.99c0.37-0.12,0.64,0.05,0.76,0.39l0.71,1.9c0.1,0.3,0.02,0.57-0.47,0.71
			c-1.16,0.37-4.43,1.5-4.95,4.04c0.64-0.27,1.67-0.49,2.34-0.49c2.32,0,4.9,1.7,4.9,5.34c0,3.1-2.56,5.64-5.64,5.64
			c-3.82,0-5.94-2.86-5.94-6.7C107.1,291.59,113.25,288.66,115.37,287.99z M112.98,302.13c1.31,0,2.36-1.08,2.36-2.36
			c0-1.31-1.06-2.39-2.36-2.39c-1.31,0-2.36,1.08-2.36,2.39C110.62,301.04,111.68,302.13,112.98,302.13z"/>
		<path class="st2" d="M120.82,296.91c0-5.39,2.29-8.62,6.31-8.62c4.02,0,6.31,3.23,6.31,8.62c0,5.39-2.29,8.62-6.31,8.62
			C123.11,305.53,120.82,302.3,120.82,296.91z M129.47,296.91c0-3.23-0.84-5.05-2.34-5.05s-2.34,1.82-2.34,5.05
			c0,3.25,0.84,5.05,2.34,5.05S129.47,300.16,129.47,296.91z"/>
		<path class="st2" d="M135.51,302.72l1.55-1.55c0.17-0.17,0.42-0.2,0.62-0.05c0,0,1.53,1.13,2.71,1.13c1.06,0,2.14-0.89,2.14-1.97
			c0-1.08-1.11-2-2.93-2h-1.38c-0.25,0-0.47-0.22-0.47-0.47v-2.04c0-0.27,0.22-0.47,0.47-0.47h1.38c1.72,0,2.64-0.84,2.64-1.9
			c0-1.06-0.91-1.85-1.97-1.85c-1.08,0-1.77,0.57-2.14,0.99c-0.17,0.2-0.47,0.2-0.66,0.03l-1.5-1.48c-0.2-0.17-0.17-0.47,0-0.64
			c0,0,2.02-2.17,4.7-2.17c2.86,0,5.32,1.75,5.32,4.51c0,1.9-1.43,3.3-2.54,3.82v0.07c1.16,0.49,2.98,2.02,2.98,4.14
			c0,2.69-2.34,4.7-5.74,4.7c-3.1,0-4.68-1.53-5.2-2.19C135.33,303.16,135.36,302.89,135.51,302.72z"/>
		<path class="st2" d="M150.9,293.73h-2.36c-0.25,0-0.44-0.22-0.44-0.47v-1.55c0-0.1,0.07-0.3,0.15-0.37l3.6-2.81h2.27
			c0.25,0,0.44,0.22,0.44,0.47v15.81c0,0.25-0.2,0.47-0.44,0.47h-2.73c-0.27,0-0.47-0.22-0.47-0.47V293.73z"/>
		<path class="st2" d="M158,296.91c0-5.39,2.29-8.62,6.31-8.62s6.31,3.23,6.31,8.62c0,5.39-2.29,8.62-6.31,8.62
			S158,302.3,158,296.91z M166.65,296.91c0-3.23-0.84-5.05-2.34-5.05c-1.5,0-2.34,1.82-2.34,5.05c0,3.25,0.84,5.05,2.34,5.05
			C165.81,301.96,166.65,300.16,166.65,296.91z"/>
	</g>
	<g>
		<path class="st2" d="M226.63,287.79c2.46,0,4.29,0.76,5.96,2.29c0.22,0.2,0.22,0.49,0.02,0.69l-1.92,1.99
			c-0.17,0.17-0.44,0.17-0.62,0c-0.91-0.81-2.12-1.26-3.33-1.26c-2.78,0-4.83,2.32-4.83,5.07c0,2.73,2.07,5,4.85,5
			c1.16,0,2.41-0.42,3.3-1.18c0.17-0.15,0.49-0.15,0.64,0.02l1.92,2.05c0.17,0.17,0.15,0.49-0.02,0.66
			c-1.67,1.63-3.79,2.39-5.99,2.39c-4.93,0-8.89-3.92-8.89-8.84S221.71,287.79,226.63,287.79z"/>
		<path class="st2" d="M243.09,287.79c4.93,0,8.87,3.97,8.87,8.89s-3.94,8.84-8.87,8.84s-8.84-3.92-8.84-8.84
			S238.16,287.79,243.09,287.79z M243.09,301.59c2.71,0,4.93-2.22,4.93-4.9c0-2.71-2.22-4.95-4.93-4.95c-2.69,0-4.9,2.24-4.9,4.95
			C238.19,299.37,240.41,301.59,243.09,301.59z"/>
		<path class="st2" d="M253.81,300.45v-2.24c0-0.27,0.2-0.47,0.47-0.47h5.64c0.27,0,0.47,0.2,0.47,0.47v2.24
			c0,0.25-0.2,0.44-0.47,0.44h-5.64C254.01,300.9,253.81,300.7,253.81,300.45z"/>
		<path class="st2" d="M261.87,302.94l1.16-2.04c0.2-0.32,0.67-0.27,0.84-0.15c0.1,0.05,1.87,1.35,3.5,1.35
			c0.99,0,1.7-0.62,1.7-1.48c0-1.03-0.86-1.82-2.54-2.49c-2.12-0.84-4.78-2.49-4.78-5.44c0-2.44,1.9-4.9,5.69-4.9
			c2.56,0,4.53,1.31,5.27,1.85c0.3,0.17,0.25,0.62,0.15,0.79l-1.26,1.9c-0.17,0.27-0.62,0.49-0.84,0.32
			c-0.22-0.12-2.02-1.48-3.52-1.48c-0.89,0-1.55,0.59-1.55,1.26c0,0.91,0.74,1.6,2.69,2.39c1.92,0.76,4.98,2.27,4.98,5.62
			c0,2.54-2.19,5.1-5.81,5.1c-3.2,0-4.98-1.33-5.54-1.9C261.75,303.38,261.67,303.29,261.87,302.94z"/>
		<path class="st2" d="M283.99,287.79c2.46,0,4.29,0.76,5.96,2.29c0.22,0.2,0.22,0.49,0.02,0.69l-1.92,1.99
			c-0.17,0.17-0.44,0.17-0.62,0c-0.91-0.81-2.12-1.26-3.33-1.26c-2.78,0-4.83,2.32-4.83,5.07c0,2.73,2.07,5,4.85,5
			c1.16,0,2.41-0.42,3.3-1.18c0.17-0.15,0.49-0.15,0.64,0.02l1.92,2.05c0.17,0.17,0.15,0.49-0.02,0.66
			c-1.67,1.63-3.79,2.39-5.99,2.39c-4.93,0-8.89-3.92-8.89-8.84S279.07,287.79,283.99,287.79z"/>
		<path class="st2" d="M291.21,300.45v-2.24c0-0.27,0.2-0.47,0.47-0.47h5.64c0.27,0,0.47,0.2,0.47,0.47v2.24
			c0,0.25-0.2,0.44-0.47,0.44h-5.64C291.41,300.9,291.21,300.7,291.21,300.45z"/>
		<path class="st2" d="M308.53,287.79c2.46,0,4.29,0.76,5.96,2.29c0.22,0.2,0.22,0.49,0.02,0.69l-1.92,1.99
			c-0.17,0.17-0.44,0.17-0.62,0c-0.91-0.81-2.12-1.26-3.33-1.26c-2.78,0-4.83,2.32-4.83,5.07c0,2.73,2.07,5,4.85,5
			c1.16,0,2.41-0.42,3.3-1.18c0.17-0.15,0.49-0.15,0.64,0.02l1.92,2.05c0.17,0.17,0.15,0.49-0.02,0.66
			c-1.67,1.63-3.79,2.39-5.99,2.39c-4.93,0-8.89-3.92-8.89-8.84S303.61,287.79,308.53,287.79z"/>
		<path class="st2" d="M317.48,288.51c0-0.25,0.2-0.47,0.47-0.47h10.2c0.27,0,0.47,0.22,0.47,0.47v2.68c0,0.25-0.2,0.47-0.47,0.47
			h-6.82v3.05h5.62c0.25,0,0.47,0.22,0.47,0.47v2.68c0,0.27-0.22,0.47-0.47,0.47h-5.62v3.33h6.82c0.27,0,0.47,0.22,0.47,0.47v2.69
			c0,0.25-0.2,0.47-0.47,0.47h-10.2c-0.27,0-0.47-0.22-0.47-0.47V288.51z"/>
		<path class="st2" d="M331.92,288.51c0-0.25,0.2-0.47,0.47-0.47h7.36c2.96,0,5.37,2.39,5.37,5.32c0,2.27-1.5,4.09-3.65,4.95
			l3.37,6.26c0.17,0.32,0,0.71-0.42,0.71h-3.28c-0.2,0-0.34-0.12-0.39-0.22l-3.28-6.53h-1.7v6.28c0,0.25-0.22,0.47-0.47,0.47h-2.93
			c-0.27,0-0.47-0.22-0.47-0.47V288.51z M339.43,295.4c1.01,0,1.87-0.94,1.87-1.97s-0.86-1.87-1.87-1.87h-3.65v3.84H339.43z"/>
		<path class="st2" d="M355.5,287.99c0.37-0.12,0.64,0.05,0.76,0.39l0.71,1.9c0.1,0.3,0.03,0.57-0.47,0.71
			c-1.16,0.37-4.43,1.5-4.95,4.04c0.64-0.27,1.67-0.49,2.34-0.49c2.32,0,4.9,1.7,4.9,5.34c0,3.1-2.56,5.64-5.64,5.64
			c-3.82,0-5.94-2.86-5.94-6.7C347.22,291.59,353.38,288.66,355.5,287.99z M353.11,302.13c1.3,0,2.36-1.08,2.36-2.36
			c0-1.31-1.06-2.39-2.36-2.39c-1.31,0-2.36,1.08-2.36,2.39C350.74,301.04,351.8,302.13,353.11,302.13z"/>
		<path class="st2" d="M368.75,287.99c0.37-0.12,0.64,0.05,0.76,0.39l0.71,1.9c0.1,0.3,0.03,0.57-0.47,0.71
			c-1.16,0.37-4.43,1.5-4.95,4.04c0.64-0.27,1.67-0.49,2.34-0.49c2.32,0,4.9,1.7,4.9,5.34c0,3.1-2.56,5.64-5.64,5.64
			c-3.82,0-5.94-2.86-5.94-6.7C360.48,291.59,366.63,288.66,368.75,287.99z M366.36,302.13c1.3,0,2.36-1.08,2.36-2.36
			c0-1.31-1.06-2.39-2.36-2.39c-1.31,0-2.36,1.08-2.36,2.39C364,301.04,365.06,302.13,366.36,302.13z"/>
		<path class="st2" d="M374.2,296.91c0-5.39,2.29-8.62,6.31-8.62c4.02,0,6.31,3.23,6.31,8.62c0,5.39-2.29,8.62-6.31,8.62
			C376.49,305.53,374.2,302.3,374.2,296.91z M382.84,296.91c0-3.23-0.84-5.05-2.34-5.05c-1.5,0-2.34,1.82-2.34,5.05
			c0,3.25,0.84,5.05,2.34,5.05C382.01,301.96,382.84,300.16,382.84,296.91z"/>
		<path class="st2" d="M388.88,302.72l1.55-1.55c0.17-0.17,0.42-0.2,0.62-0.05c0,0,1.53,1.13,2.71,1.13c1.06,0,2.14-0.89,2.14-1.97
			c0-1.08-1.11-2-2.93-2h-1.38c-0.25,0-0.47-0.22-0.47-0.47v-2.04c0-0.27,0.22-0.47,0.47-0.47h1.38c1.72,0,2.64-0.84,2.64-1.9
			c0-1.06-0.91-1.85-1.97-1.85c-1.08,0-1.77,0.57-2.14,0.99c-0.17,0.2-0.47,0.2-0.66,0.03l-1.5-1.48c-0.2-0.17-0.17-0.47,0-0.64
			c0,0,2.02-2.17,4.7-2.17c2.86,0,5.32,1.75,5.32,4.51c0,1.9-1.43,3.3-2.54,3.82v0.07c1.16,0.49,2.98,2.02,2.98,4.14
			c0,2.69-2.34,4.7-5.74,4.7c-3.1,0-4.68-1.53-5.2-2.19C388.71,303.16,388.74,302.89,388.88,302.72z"/>
		<path class="st2" d="M404.28,293.73h-2.36c-0.25,0-0.44-0.22-0.44-0.47v-1.55c0-0.1,0.07-0.3,0.15-0.37l3.6-2.81h2.27
			c0.25,0,0.44,0.22,0.44,0.47v15.81c0,0.25-0.2,0.47-0.44,0.47h-2.73c-0.27,0-0.47-0.22-0.47-0.47V293.73z"/>
		<path class="st2" d="M411.38,296.91c0-5.39,2.29-8.62,6.31-8.62c4.02,0,6.31,3.23,6.31,8.62c0,5.39-2.29,8.62-6.31,8.62
			C413.67,305.53,411.38,302.3,411.38,296.91z M420.03,296.91c0-3.23-0.84-5.05-2.34-5.05c-1.5,0-2.34,1.82-2.34,5.05
			c0,3.25,0.84,5.05,2.34,5.05C419.19,301.96,420.03,300.16,420.03,296.91z"/>
	</g>
	<g>
		<g>
			<path class="st3" d="M31.07,266.55c-15.33,0-27.79-12.47-27.79-27.79V48.78c0-15.33,12.47-27.81,27.79-27.81h111.4
				c15.33,0,27.8,12.48,27.8,27.81v189.98c0,15.33-12.47,27.79-27.8,27.79H31.07z M10.25,238.76c0,11.48,9.34,20.82,20.82,20.82
				h111.4c11.48,0,20.82-9.34,20.82-20.82v-65.91c-23.03,13.81-49.39,21.1-76.42,21.1c-27.1,0-53.53-7.33-76.62-21.22V238.76z"/>
			<path class="st2" d="M142.46,22.47c14.53,0,26.3,11.78,26.3,26.31v189.98c0,14.53-11.77,26.3-26.3,26.3H31.07
				c-14.53,0-26.3-11.77-26.3-26.3V48.78c0-14.53,11.77-26.31,26.3-26.31H142.46 M31.07,261.08h111.4
				c12.3,0,22.32-10.01,22.32-22.32v-68.59c-22.61,14.13-49.32,22.28-77.92,22.28c-28.69,0-55.47-8.2-78.12-22.4v68.71
				C8.75,251.07,18.76,261.08,31.07,261.08 M142.46,19.47H31.07c-16.15,0-29.3,13.15-29.3,29.31v189.98
				c0,16.15,13.14,29.3,29.3,29.3h111.4c16.15,0,29.3-13.14,29.3-29.3V48.78C171.76,32.62,158.62,19.47,142.46,19.47L142.46,19.47z
				 M31.07,258.08c-10.65,0-19.32-8.67-19.32-19.32v-63.4c22.77,13.16,48.63,20.09,75.12,20.09c26.42,0,52.2-6.89,74.92-19.98v63.29
				c0,10.65-8.67,19.32-19.32,19.32H31.07L31.07,258.08z"/>
		</g>
		<path class="st2" d="M164.78,170.17v68.59c0,12.31-10.02,22.32-22.32,22.32H31.07c-12.31,0-22.32-10.01-22.32-22.32v-68.71
			c22.65,14.19,49.42,22.4,78.12,22.4C115.47,192.45,142.17,184.3,164.78,170.17z"/>
		<g>
			<path class="st3" d="M35.75,232.5v-18.78h3.56v18.78H35.75z"/>
			<path class="st3" d="M42.96,231.26l0.8-2.9c0.68,0.35,1.45,0.66,2.32,0.93c0.87,0.27,1.66,0.4,2.38,0.4
				c1.11,0,1.94-0.17,2.51-0.52c0.57-0.35,0.86-0.86,0.86-1.52c0-0.46-0.23-0.88-0.68-1.26c-0.45-0.38-1.15-0.82-2.09-1.34
				l-0.83-0.5c-1.23-0.74-2.21-1.37-2.94-1.91c-0.73-0.53-1.35-1.16-1.88-1.89c-0.53-0.73-0.79-1.54-0.79-2.44
				c0-0.96,0.26-1.82,0.77-2.58c0.52-0.76,1.26-1.36,2.22-1.8c0.97-0.43,2.12-0.65,3.47-0.65c1.58,0,3.35,0.47,5.3,1.41l-1.19,2.87
				c-0.76-0.37-1.44-0.65-2.06-0.86c-0.62-0.2-1.28-0.3-2-0.3c-0.83,0-1.51,0.16-2.03,0.48c-0.52,0.32-0.79,0.8-0.79,1.42
				c0,0.53,0.21,0.98,0.62,1.34c0.41,0.36,1.09,0.81,2.03,1.37l0.88,0.5l0.8,0.47c1.09,0.63,1.95,1.17,2.6,1.64
				c0.64,0.47,1.18,1.04,1.62,1.71c0.43,0.67,0.65,1.46,0.65,2.36c0,1.01-0.27,1.91-0.81,2.68c-0.54,0.77-1.34,1.38-2.4,1.82
				c-1.06,0.44-2.32,0.66-3.8,0.66c-0.77,0-1.74-0.17-2.89-0.51C44.48,232.01,43.59,231.64,42.96,231.26z"/>
			<path class="st3" d="M66.38,213.28c1.9,0,3.55,0.43,4.94,1.28c1.4,0.86,2.46,2.02,3.19,3.49c0.73,1.47,1.09,3.12,1.09,4.94
				c0,1.91-0.39,3.61-1.16,5.1c-0.77,1.48-1.85,2.64-3.24,3.48c-1.39,0.84-3,1.27-4.82,1.31c-1.9,0-3.54-0.43-4.93-1.28
				s-2.45-2.02-3.18-3.48s-1.09-3.11-1.09-4.93c0-1.9,0.38-3.59,1.15-5.08c0.76-1.49,1.85-2.66,3.24-3.51
				C62.98,213.76,64.58,213.31,66.38,213.28z M60.92,223.17c0,1.31,0.22,2.47,0.66,3.49c0.44,1.02,1.07,1.81,1.89,2.38
				c0.82,0.56,1.78,0.84,2.89,0.84c1.03,0,1.96-0.25,2.8-0.76c0.84-0.51,1.5-1.28,1.99-2.32c0.49-1.04,0.73-2.31,0.73-3.8
				c0-1.29-0.22-2.44-0.66-3.45c-0.44-1.01-1.08-1.8-1.91-2.38c-0.83-0.57-1.79-0.86-2.87-0.86c-0.99,0-1.91,0.28-2.75,0.84
				c-0.84,0.56-1.51,1.36-2.02,2.4C61.17,220.6,60.92,221.8,60.92,223.17z"/>
			<path class="st3" d="M93.16,217.35c1.08,0.56,1.92,1.39,2.53,2.49c0.61,1.1,0.91,2.43,0.91,3.99c0,2.03-0.56,3.8-1.69,5.32
				c-1.12,1.52-2.51,2.72-4.17,3.6s-3.3,1.43-4.92,1.63l-0.5-2.95c3.43-0.94,5.75-2.3,6.96-4.09c-0.88,0.42-1.8,0.64-2.76,0.64
				c-1.14,0-2.17-0.26-3.09-0.77c-0.92-0.52-1.64-1.21-2.17-2.07c-0.53-0.87-0.79-1.82-0.79-2.87c0-1.12,0.26-2.12,0.77-2.98
				c0.52-0.87,1.22-1.54,2.13-2.03c0.9-0.49,1.92-0.73,3.07-0.73C90.84,216.51,92.08,216.79,93.16,217.35z M87.51,224.28
				c0.55,0.58,1.25,0.87,2.1,0.87c1.42,0,2.63-0.38,3.65-1.13c-0.02-1.55-0.36-2.69-1.02-3.44c-0.66-0.75-1.56-1.12-2.68-1.12
				c-0.81,0-1.49,0.26-2.04,0.77c-0.55,0.52-0.83,1.14-0.83,1.88C86.68,222.98,86.96,223.7,87.51,224.28z"/>
			<path class="st3" d="M97.98,224.63c0-1.55,0.33-2.94,0.99-4.17c0.66-1.23,1.58-2.2,2.75-2.9c1.17-0.7,2.49-1.05,3.96-1.05
				c1.45,0,2.77,0.35,3.94,1.04s2.08,1.65,2.73,2.89c0.65,1.23,0.98,2.62,0.98,4.14c0,1.58-0.33,3.01-0.99,4.27
				c-0.66,1.26-1.58,2.25-2.75,2.96c-1.17,0.71-2.48,1.06-3.94,1.06s-2.77-0.35-3.94-1.06s-2.09-1.69-2.75-2.94
				C98.31,227.6,97.98,226.19,97.98,224.63z M101.27,224.55c0,0.99,0.19,1.89,0.57,2.69c0.38,0.8,0.9,1.43,1.57,1.88
				c0.67,0.45,1.43,0.68,2.28,0.68c0.85,0,1.61-0.22,2.28-0.66c0.67-0.44,1.2-1.05,1.57-1.82c0.38-0.77,0.57-1.65,0.57-2.62
				s-0.19-1.85-0.58-2.64c-0.39-0.78-0.92-1.39-1.59-1.84c-0.67-0.44-1.43-0.66-2.28-0.66c-0.83,0-1.58,0.22-2.25,0.65
				c-0.67,0.43-1.2,1.03-1.57,1.78C101.46,222.73,101.27,223.59,101.27,224.55z"/>
			<path class="st3" d="M114.72,224.63c0-1.55,0.33-2.94,0.99-4.17c0.66-1.23,1.58-2.2,2.75-2.9c1.17-0.7,2.49-1.05,3.96-1.05
				c1.45,0,2.77,0.35,3.94,1.04c1.17,0.69,2.08,1.65,2.73,2.89c0.65,1.23,0.98,2.62,0.98,4.14c0,1.58-0.33,3.01-0.99,4.27
				c-0.66,1.26-1.58,2.25-2.75,2.96c-1.17,0.71-2.48,1.06-3.93,1.06c-1.45,0-2.77-0.35-3.94-1.06c-1.17-0.71-2.09-1.69-2.75-2.94
				C115.05,227.6,114.72,226.19,114.72,224.63z M118,224.55c0,0.99,0.19,1.89,0.57,2.69c0.38,0.8,0.9,1.43,1.57,1.88
				c0.67,0.45,1.43,0.68,2.28,0.68c0.85,0,1.61-0.22,2.28-0.66c0.67-0.44,1.2-1.05,1.58-1.82c0.38-0.77,0.57-1.65,0.57-2.62
				s-0.19-1.85-0.58-2.64c-0.39-0.78-0.92-1.39-1.59-1.84c-0.67-0.44-1.43-0.66-2.28-0.66c-0.83,0-1.58,0.22-2.25,0.65
				c-0.67,0.43-1.2,1.03-1.57,1.78C118.19,222.73,118,223.59,118,224.55z"/>
			<path class="st3" d="M135.54,232.5v-11.66l-3.15,1.22l-1.35-2.68l5.69-2.51h2.4v15.63H135.54z"/>
		</g>
		<g>
			<g>
				<g>
					<g>
						<path class="st2" d="M86.78,96.18c-6.98,0-12.66-5.69-12.65-12.67c0.01-6.98,5.69-12.66,12.67-12.65
							c6.98,0,12.66,5.69,12.65,12.67S93.76,96.19,86.78,96.18 M86.79,75.55c-4.4,0-7.98,3.57-7.98,7.97c0,4.39,3.57,7.97,7.97,7.98
							c4.4,0,7.97-3.57,7.98-7.97C94.76,79.13,91.19,75.55,86.79,75.55"/>
						<path class="st2" d="M63.57,103.46c-4.61-5.37-7.4-12.35-7.39-19.97c0-6.07,1.79-11.72,4.84-16.49l-3.75-2.83
							c-3.65,5.56-5.78,12.19-5.78,19.31c-0.01,8.91,3.31,17.06,8.76,23.29L63.57,103.46z"/>
						<path class="st2" d="M60.25,60.26l3.32,3.32c1.02-1.19,2.13-2.3,3.31-3.32l-3.32-3.32C62.38,57.97,61.28,59.08,60.25,60.26"/>
						<path class="st2" d="M86.89,48.14c-7.16,0-13.83,2.14-19.41,5.81l2.82,3.75c4.79-3.09,10.48-4.88,16.58-4.88
							c8,0.01,15.45,3.03,21.1,8.42l4.1-2.53C105.47,51.96,96.52,48.15,86.89,48.14"/>
						<path class="st2" d="M100.98,96.65c-3.53,3.79-8.55,6.16-14.13,6.16c-10.64-0.01-19.28-8.67-19.28-19.3
							c0.01-10.64,8.67-19.28,19.3-19.28c3.94,0,7.71,1.21,10.87,3.37l4.28-2.65c-4.22-3.45-9.54-5.4-15.14-5.41
							c-13.22-0.01-23.99,10.74-24,23.96c-0.01,13.22,10.74,23.99,23.96,23.99c7.14,0.01,13.56-3.13,17.96-8.09L100.98,96.65z"/>
						<path class="st2" d="M103.93,109.01c-4.89,3.29-10.77,5.2-17.09,5.2c-7.62-0.01-14.59-2.81-19.96-7.43l-3.32,3.32
							c6.22,5.46,14.37,8.79,23.28,8.79c7.42,0.01,14.31-2.29,20-6.2L103.93,109.01z"/>
						<path class="st2" d="M115.24,62.27l-13.71,8.48c0,0,4.62,5.36,4.62,12.78c0,3.38-0.88,6.56-2.42,9.32l3.82,2.76
							c2.08-3.55,3.28-7.67,3.28-12.08c0-3.96-0.97-7.82-2.81-11.29l5.72-3.54c2.5,4.53,3.8,9.61,3.8,14.83
							c-0.01,8.92-3.84,16.96-9.94,22.56l2.91,3.69c7.18-6.47,11.72-15.84,11.72-26.25C122.24,70.95,115.24,62.27,115.24,62.27"/>
					</g>
					<g>
						<path class="st2" d="M61.64,136.46c-5.47,0-9.93,4.43-9.93,9.89c0,5.46,4.45,9.9,9.92,9.9c5.48,0,9.93-4.43,9.94-9.89
							C71.57,140.91,67.12,136.46,61.64,136.46 M61.63,152.19c-3.23,0-5.85-2.62-5.85-5.84c0-3.22,2.63-5.83,5.86-5.83
							c3.23,0,5.85,2.62,5.85,5.84C67.48,149.58,64.86,152.19,61.63,152.19"/>
						<path class="st2" d="M28.42,155.63l-4.15,0l0.01-16.91l4.15,0L28.42,155.63z M26.35,136.56c-1.41,0-2.52-1.1-2.52-2.51
							c0-1.41,1.11-2.51,2.52-2.51c1.41,0,2.52,1.1,2.52,2.51C28.87,135.46,27.76,136.56,26.35,136.56"/>
						<path class="st2" d="M84.82,136.41c-5.47,0-9.93,4.43-9.94,9.89c0,0,0,9.51,0,9.51l4.38,0l0.01-9.81
							c0-3.05,2.49-5.52,5.55-5.52c3.02,0,5.48,2.42,5.54,5.42l-0.01,9.93l4.38,0l0.01-9.51C94.75,140.86,90.3,136.42,84.82,136.41"
							/>
						<path class="st2" d="M108.08,152.52L108.08,152.52c0,0-0.65,0.05-0.9,0.05c-1.79,0-2.63-0.45-2.63-2.97l0.01-9.68l3.7,0
							l0-3.23l-3.69,0l0-3.79l-4.38,0l0,3.79l-2.52,0l0,3.21l2.52,0.01l-0.01,9.09c0,1.32,0.1,3.24,0.93,4.76
							c0.92,1.67,2.54,2.52,4.83,2.52c1.1,0,2.14-0.21,2.14-0.21L108.08,152.52z"/>
						<path class="st2" d="M42.24,156.29c-5.5,0-9.97-4.47-9.97-9.95c0-5.48,4.48-9.94,9.99-9.94c4.65,0,7.25,3.12,7.25,3.12
							l-2.65,3.28c0,0-1.64-2.24-4.6-2.24c-3.2,0-5.81,2.59-5.81,5.78c0,3.19,2.6,5.79,5.8,5.79c3.04,0,4.64-2.28,4.64-2.28
							l2.67,3.27C49.55,153.12,46.89,156.29,42.24,156.29"/>
						<path class="st2" d="M142.58,156.29c-5.5,0-9.98-4.47-9.97-9.95c0-5.48,4.48-9.94,9.99-9.94c4.65,0,7.25,3.12,7.25,3.12
							l-2.65,3.28c0,0-1.64-2.24-4.6-2.24c-3.2,0-5.81,2.59-5.81,5.78c0,3.19,2.6,5.79,5.8,5.79c3.04,0,4.64-2.28,4.64-2.28
							l2.67,3.27C149.89,153.12,147.24,156.29,142.58,156.29"/>
						<path class="st2" d="M120.27,136.31c-5.82,0-9.32,4.82-9.32,10.05c0,5.84,4.07,9.92,9.91,9.92c5.86,0,8.12-4.39,8.12-4.39
							l-2.99-2.24c0,0-1.52,2.7-5.05,2.7c-3.11,0-5.49-1.94-5.68-4.86l14.14,0.01c0,0,0.07-0.92,0.07-1.24
							C129.47,142,127.34,136.31,120.27,136.31 M115.42,144.28c0.35-2.51,2.4-4.18,4.88-4.18c2.6,0,4.5,1.64,4.74,4.19
							L115.42,144.28z"/>
					</g>
				</g>
			</g>
		</g>
	</g>
</g>
</svg>
